<svg xmlns="http://www.w3.org/2000/svg" xmlns:xlink="http://www.w3.org/1999/xlink" viewBox="0 0 582.48 537.37"><defs><linearGradient id="a" x1="-11.01" y1="355.48" x2="61.2" y2="355.48" gradientTransform="matrix(1 0 0 -1 0 526.5)" gradientUnits="userSpaceOnUse"><stop offset="0" stop-color="#eeae64"/><stop offset="1" stop-color="#c1465a"/></linearGradient><linearGradient id="c" x1="457.46" y1="188.95" x2="369.4" y2="188.95" xlink:href="#a"/><linearGradient id="d" x1="277.62" y1="218.82" x2="200.13" y2="199.44" xlink:href="#a"/><linearGradient id="e" x1="573.28" y1="263.52" x2="441.19" y2="251.19" xlink:href="#a"/><linearGradient id="f" x1="305.38" y1="22.22" x2="261.35" y2="122.61" xlink:href="#a"/><linearGradient id="g" x1="131.95" y1="47.02" x2="151.32" y2="177.35" xlink:href="#a"/><linearGradient id="b" x1="65.94" y1="339.07" x2="279.05" y2="333.79" gradientTransform="matrix(1 0 0 -1 0 526.5)" gradientUnits="userSpaceOnUse"><stop offset="0" stop-color="#88f1b8"/><stop offset="1" stop-color="#3e6a73"/></linearGradient><linearGradient id="h" x1="231.33" y1="435.12" x2="277.84" y2="435.12" xlink:href="#b"/><linearGradient id="i" x1="164.2" y1="242.87" x2="239.05" y2="242.87" xlink:href="#b"/></defs><g data-name="Layer 2"><g data-name="Layer 1"><path d="M131.72 40.28c-1 .75-1.94 1.51-2.89 2.28-.58.48-1.16.94-1.73 1.42s-1.15 1-1.72 1.44l-1.69 1.45c-1.12 1-2.23 2-3.33 3-.55.5-1.1 1-1.64 1.51-1.62 1.52-3.23 3.08-4.81 4.65q-5.52 5.52-10.59 11.49c-1.44 1.71-2.86 3.43-4.25 5.19S96.33 76.2 95 78q-1.32 1.8-2.61 3.63c-.43.61-.85 1.22-1.27 1.84l-1.26 1.86c-.42.62-.82 1.25-1.23 1.87s-.72 1.12-1.09 1.67L86.22 91c-.4.63-.78 1.27-1.17 1.91l-1.15 1.94c-.39.65-.77 1.32-1.15 2s-.72 1.28-1.08 1.92c-.73 1.31-1.44 2.64-2.14 4s-1.37 2.66-2 4-1.25 2.56-1.86 3.85a2.14 2.14 0 01-.1.22c-.62 1.34-1.23 2.68-1.82 4s-1.23 2.86-1.83 4.3c-.2.53-.42 1.06-.63 1.58-.34.86-.68 1.74-1 2.61q-.87 2.27-1.68 4.58c-.47 1.33-.91 2.67-1.36 4-.17.53-.34 1.07-.52 1.6-.29.91-.58 1.84-.85 2.76-.19.64-.39 1.29-.58 1.94-.67 2.32-1.29 4.66-1.88 7-.18.72-.36 1.43-.52 2.15s-.36 1.5-.52 2.25q-.81 3.54-1.46 7.16c-.12.65-.23 1.3-.35 1.95s-.23 1.33-.33 2l-.42 2.66c-.11.75-.21 1.5-.31 2.26s-.24 1.81-.35 2.71c-.08.6-.15 1.21-.21 1.81-.16 1.43-.3 2.87-.44 4.31-.05.57-.1 1.14-.14 1.71-.15 1.87-.27 3.73-.37 5.62 0 .81-.08 1.63-.11 2.46 0 1.05-.07 2.09-.09 3.14 0 1.42-.05 2.85-.05 4.28v2.48c0 1.65.06 3.3.12 4.94s.13 3 .22 4.56c.22 3.62.55 7.22 1 10.79.06.56.13 1.13.2 1.68l.18 1.41c.08.6.16 1.19.25 1.78q.41 2.91.92 5.77c.11.64.22 1.28.35 1.91l.27 1.5a191.62 191.62 0 007.46 27.34c.15.44.31.86.47 1.29.37 1 .74 2 1.14 3s.79 2.05 1.2 3.07.89 2.2 1.36 3.29c.23.55.47 1.1.71 1.63q1.09 2.58 2.3 5.11c.19.42.39.83.59 1.25s.26.54.4.81a118 118 0 00-59.76 26.42A192.06 192.06 0 01131.72 40.28z" fill="url(#a)"/><path d="M514.52 282.27a192.17 192.17 0 01-238.26 99.49c5.26-.72 10.43-1.66 15.55-2.8a191.12 191.12 0 0076.27-36.24 118.75 118.75 0 00146.44-60.45z" fill="url(#c)"/><path d="M441.57 191.82a192 192 0 01-73.48 150.88q-7.29 5.73-15.12 10.74A190.83 190.83 0 01291.82 379c-5.12 1.14-10.29 2.08-15.55 2.8-2.78.4-5.58.72-8.39 1h-2.59A73.26 73.26 0 01192 309.46a71.73 71.73 0 01.7-10.11 191.83 191.83 0 00185.39-24.76 192.3 192.3 0 0063.49-82.77z" fill="url(#d)"/><path d="M582.48 306a118.56 118.56 0 00-169.72-13.12 190.79 190.79 0 0024.07-58.61A118.72 118.72 0 01582.48 306z" fill="url(#e)"/><path d="M342.7 476.31a118 118 0 01-16.91 61.06A192.1 192.1 0 00187.5 373.51l-.06-.22.24.08c1.77.6 3.54 1.18 5.34 1.74.79.24 1.59.49 2.4.72l2.19.63 1.75.49c1.54.42 3.1.81 4.65 1.2l2.65.62 2 .45 1.64.36 1.92.39 2.45.47.54.1 2.64.46h.22l2.61.41 2.8.41 3.16.41q1.08.14 2.16.24 3.28.36 6.61.6c.84.07 1.68.12 2.53.17 1.1.07 2.2.12 3.31.16l2.42.1h6.02c1.53 0 3.08 0 4.6-.05l3-.1 2.23-.1 1.8-.1c.68 0 1.36-.08 2-.13l2.26-.17 2.25-.2a190.42 190.42 0 0024.01-3.65 118.35 118.35 0 0150.86 97.31z" fill="url(#f)"/><path d="M192 405.91a118.42 118.42 0 01-49 96 191.69 191.69 0 009-58.35 191.87 191.87 0 00-8-54.81 188 188 0 00-8.29-22.55 191.64 191.64 0 00-30.27-47.88c.76.87 1.54 1.74 2.32 2.6.61.67 1.24 1.34 1.86 2q3.75 4 7.72 7.77l2 1.88c.69.63 1.37 1.26 2.07 1.88l2 1.79c.69.6 1.38 1.2 2.08 1.79.54.47 1.09.92 1.63 1.37l1 .83 1.59 1.29c.81.65 1.62 1.29 2.45 1.93l1.94 1.55c2.07 1.56 4.18 3.1 6.32 4.58q3.79 2.64 7.72 5.08 2 1.22 4 2.41l.6.35 2.07 1.2c.79.46 1.6.9 2.41 1.35l1.83 1c1 .55 2 1.08 3.05 1.6 2.47 1.27 4.95 2.48 7.48 3.63.76.36 1.52.7 2.29 1.05.95.43 1.93.84 2.89 1.25l.2.09q2.4 1 4.85 2l2.36.91.57.21 2.21.8.14.05 2.34.82.06.22a116.66 116.66 0 014.51 32.31z" fill="url(#g)"/><path d="M251.43 211.7a73.3 73.3 0 0062.87-68.55 45.26 45.26 0 01-38 20.69 44.15 44.15 0 01-4.77-.25 192 192 0 006.34-49.11 193.74 193.74 0 00-1.76-26.11c-.7-5.06-1.58-10.08-2.66-15v-.07a188.68 188.68 0 00-8.57-28.35A190.9 190.9 0 00240 0l-2.37.13-2.41.17-2.36.19-1.81.16-1 .1q-3.27.33-6.51.77l-2.32.33c-.77.11-1.53.23-2.3.36l-2.3.39c-1.52.26-3 .55-4.57.85-.76.15-1.51.3-2.27.47s-1.55.33-2.32.51l-2.18.5-2.28.55-2.08.52-2.36.64c-.74.2-1.47.42-2.21.63l-2.19.65c-.73.21-1.46.44-2.19.67-1.68.53-3.36 1.08-5 1.65l-1.47.52c-.91.32-1.82.65-2.72 1-1.16.43-2.31.87-3.46 1.32-.77.3-1.54.62-2.31.93-1.39.57-2.78 1.16-4.16 1.76q-6.22 2.73-12.21 5.87c-1.23.65-2.44 1.3-3.64 2-.76.42-1.52.84-2.28 1.28-1.3.74-2.59 1.49-3.87 2.27l-1.92 1.17c-.64.39-1.27.79-1.9 1.19s-1.27.8-1.89 1.21l-1.9 1.24-1.85 1.25q-3.7 2.52-7.27 5.23l-1.78 1.36c-.2.16-.41.31-.61.49-1 .75-1.94 1.51-2.89 2.28-.58.48-1.16.94-1.73 1.42s-1.15 1-1.72 1.44l-1.69 1.45c-1.12 1-2.23 2-3.33 3-.55.5-1.1 1-1.64 1.51-1.62 1.52-3.23 3.08-4.81 4.65q-5.52 5.52-10.59 11.49c-1.44 1.71-2.86 3.43-4.25 5.19S96.34 76.22 95 78q-1.32 1.8-2.61 3.63c-.43.61-.85 1.22-1.27 1.84l-1.26 1.86c-.42.62-.82 1.25-1.23 1.87s-.72 1.12-1.09 1.67L86.23 91c-.4.63-.78 1.27-1.17 1.91l-1.15 1.94c-.39.65-.77 1.32-1.15 2s-.72 1.28-1.08 1.92c-.73 1.31-1.44 2.64-2.14 4s-1.37 2.66-2 4-1.25 2.56-1.86 3.85a2.14 2.14 0 01-.1.22c-.62 1.34-1.23 2.68-1.82 4s-1.23 2.86-1.83 4.3c-.2.53-.42 1.06-.63 1.58-.34.86-.68 1.74-1 2.61q-.87 2.26-1.68 4.58c-.47 1.33-.91 2.67-1.36 4-.17.53-.34 1.07-.52 1.6-.29.91-.58 1.84-.85 2.76-.19.64-.39 1.29-.58 1.94-.67 2.32-1.29 4.66-1.88 7-.18.72-.36 1.43-.52 2.15s-.36 1.5-.52 2.25q-.81 3.54-1.46 7.16c-.12.65-.23 1.3-.35 2s-.23 1.33-.33 2l-.42 2.66c-.11.75-.21 1.5-.31 2.26s-.24 1.81-.35 2.71c-.08.6-.15 1.21-.21 1.81-.16 1.43-.3 2.87-.44 4.31-.05.57-.1 1.14-.14 1.71-.15 1.87-.27 3.73-.37 5.62 0 .81-.08 1.63-.11 2.46 0 1.05-.07 2.09-.09 3.14v6.76c0 1.65.06 3.3.12 4.94s.13 3 .22 4.56c.22 3.62.55 7.22 1 10.79.06.56.13 1.13.2 1.68l.18 1.41c.08.6.16 1.19.25 1.78q.41 2.91.92 5.77c.11.64.22 1.28.35 1.91l.27 1.5a191.62 191.62 0 007.46 27.34c.15.44.31.86.47 1.29.37 1 .74 2 1.14 3s.79 2.05 1.2 3.07.89 2.2 1.36 3.29c.23.55.47 1.1.71 1.63q1.09 2.58 2.3 5.11c.19.42.39.83.59 1.25.13.27.26.54.4.81.69 1.44 1.41 2.87 2.14 4.29.56 1.08 1.13 2.15 1.69 3.21l.27.51.81 1.47 1.36 2.41.3.52c.22.4.45.78.68 1.17.84 1.43 1.71 2.86 2.59 4.27.37.6.74 1.2 1.13 1.79l.26.41c.68 1.07 1.37 2.12 2.08 3.17.15.23.3.47.47.69.38.57.76 1.12 1.15 1.67s.87 1.26 1.32 1.89l.81 1.13 1.64 2.25q1.5 2 3.08 4c.37.48.74 1 1.13 1.42.58.73 1.17 1.45 1.77 2.17s1 1.19 1.47 1.77 1.17 1.38 1.78 2.06c.21.26.45.53.68.78.76.87 1.54 1.74 2.32 2.6.61.67 1.24 1.34 1.86 2q3.75 4 7.72 7.77l2 1.88c.69.63 1.37 1.26 2.07 1.88l2 1.79c.69.6 1.38 1.2 2.08 1.79.54.47 1.09.92 1.63 1.37l1 .83 1.59 1.29c.81.65 1.62 1.29 2.45 1.93l1.89 1.44c2.07 1.56 4.18 3.1 6.32 4.58q3.8 2.64 7.72 5.08 2 1.22 4 2.41l.6.35 2.07 1.2c.79.46 1.6.9 2.41 1.35l1.83 1c1 .55 2 1.08 3.05 1.6 2.47 1.27 4.95 2.48 7.48 3.63.76.36 1.52.7 2.29 1.05 1 .43 1.93.84 2.89 1.25l.2.09q2.4 1 4.85 2l2.36.91.57.21 2.21.8.14.05 2.34.82.24.08c1.77.6 3.54 1.18 5.34 1.74.79.24 1.59.49 2.4.72l2.19.63 1.75.49c1.54.42 3.1.81 4.65 1.2l2.65.62 2 .45 1.64.36.68.13 1.24.25 2.45.47.54.1 2.64.46h.22l2.61.41 2.8.41 3.16.41 2.16.24q3.28.36 6.61.6c.84.07 1.68.12 2.53.17 1.1.07 2.2.12 3.31.16l2.42.1h.19l1.87.05h3.96c1.53 0 3.08 0 4.6-.05l3-.1 2.23-.1 1.8-.1c.68 0 1.36-.08 2-.13l2.26-.17 2.25-.2c-.85 0-1.73.05-2.59.05a73.47 73.47 0 01-62.37-34.78 72.83 72.83 0 01-10.92-38.51 71.73 71.73 0 01.7-10.11A73.45 73.45 0 01220 251.87h.06a193.27 193.27 0 0019-21.58 73.42 73.42 0 01-49-38.46 73 73 0 0051 20.67 81.62 81.62 0 0010.37-.8z" fill="url(#b)"/><path d="M271.5 163.6c.49.05 1 .09 1.48.11a73.87 73.87 0 01-7.91.42 72.89 72.89 0 01-33.74-8.21A118.7 118.7 0 00251.9 18.68l.33-.05a191 191 0 0121.17 54.64.1.1 0 010 .07c1.09 4.93 2 10 2.66 15a194 194 0 011.76 26.12 192.12 192.12 0 01-6.32 49.14z" style="isolation:isolate" fill="url(#h)" opacity=".7"/><path d="M231.2 374.38a118.64 118.64 0 01-40.53-181.51 73.44 73.44 0 0048.38 37.34 194.19 194.19 0 01-19 21.57l-.07.05a73.76 73.76 0 00-8.28 7.63 72.91 72.91 0 00-19 39.89 70.46 70.46 0 00-.7 10.11 72.94 72.94 0 004.37 25A74.25 74.25 0 00202.9 348a72.25 72.25 0 007.84 10.46 73.46 73.46 0 0020.46 15.92z" style="isolation:isolate" fill="url(#i)" opacity=".7"/><path d="M84.36 226.6a191 191 0 0026.88 98c-.55-.55-1.06-1.09-1.57-1.64s-1.25-1.34-1.85-2c-.79-.86-1.57-1.73-2.32-2.59-.23-.26-.48-.53-.69-.79-.6-.67-1.2-1.36-1.78-2.06s-1-1.18-1.46-1.76-1.2-1.44-1.76-2.17c-.39-.48-.77-.95-1.13-1.43-1.06-1.32-2.08-2.66-3.08-4-.56-.74-1.11-1.5-1.64-2.24l-.81-1.13c-.46-.63-.9-1.27-1.32-1.9s-.78-1.09-1.16-1.67c-.16-.21-.3-.46-.46-.69-.7-1-1.41-2.1-2.08-3.17a2.39 2.39 0 01-.26-.41c-.39-.58-.76-1.18-1.13-1.78a231.6 231.6 0 01-2.59-4.28l-.69-1.16a4.27 4.27 0 00-.3-.51c-.46-.81-.92-1.62-1.36-2.41-.28-.49-.55-1-.81-1.48l-.28-.49c-.56-1.06-1.13-2.13-1.69-3.22-.74-1.41-1.44-2.84-2.15-4.28-.12-.28-.26-.55-.39-.81-.21-.42-.41-.85-.6-1.25-.79-1.69-1.57-3.4-2.29-5.11-.25-.55-.48-1.09-.72-1.64-.46-1.09-.92-2.18-1.36-3.29s-.81-2-1.2-3.06-.77-2-1.13-3.05l-.48-1.29a192.84 192.84 0 01-7.47-27.33c-.09-.49-.18-1-.26-1.51s-.23-1.27-.35-1.9c-.33-1.92-.65-3.84-.92-5.78-.09-.58-.18-1.18-.26-1.78s-.11-.93-.18-1.41-.14-1.13-.19-1.67c-.44-3.58-.76-7.17-1-10.8q-.13-2.26-.21-4.56c-.07-1.64-.11-3.28-.12-4.93v-6.76c0-1 .05-2.1.11-3.13 0-.83.07-1.66.11-2.47.09-1.88.21-3.75.37-5.62 0-.56.09-1.13.14-1.71.12-1.44.26-2.87.42-4.31.07-.6.14-1.2.23-1.8.09-.92.21-1.81.33-2.71l.32-2.27c.14-.88.28-1.76.42-2.66.09-.67.21-1.34.33-2s.21-1.3.33-1.95c.44-2.4.93-4.79 1.46-7.15.16-.76.33-1.5.53-2.25s.33-1.43.51-2.15c.58-2.34 1.22-4.68 1.88-7 .19-.65.39-1.3.58-1.94.26-.92.55-1.85.85-2.77.18-.53.35-1.07.51-1.6.46-1.34.9-2.68 1.37-4 .55-1.53 1.09-3.06 1.67-4.58.33-.88.67-1.74 1-2.61l.63-1.59q.9-2.16 1.81-4.3c.6-1.36 1.2-2.69 1.81-4a2.4 2.4 0 00.11-.23c.62-1.29 1.23-2.57 1.87-3.84s1.34-2.69 2-4 1.43-2.66 2.15-4c.35-.65.7-1.29 1.07-1.92s.76-1.34 1.14-2 .76-1.29 1.14-1.94.77-1.27 1.18-1.9.88-1.43 1.32-2.11.7-1.13 1.07-1.69l1.23-1.87 1.25-1.85c.42-.62.85-1.23 1.27-1.83Q93.62 79.79 95 78c1.32-1.8 2.68-3.58 4.07-5.32s2.8-3.49 4.24-5.2c3.36-4 6.9-7.8 10.58-11.48 1.59-1.57 3.19-3.13 4.81-4.65.55-.51 1.11-1 1.66-1.51q1.64-1.5 3.33-3l1.69-1.44q.84-.73 1.71-1.44c.58-.48 1.15-.93 1.73-1.43.95-.76 1.92-1.53 2.91-2.27.19-.18.41-.33.6-.49.6-.46 1.18-.92 1.78-1.36q3.57-2.7 7.27-5.23c.6-.42 1.22-.83 1.83-1.25s1.25-.83 1.88-1.23l1.88-1.22 1.9-1.18c.63-.41 1.27-.77 1.92-1.16 1.29-.79 2.57-1.53 3.86-2.27l2.29-1.29c1.22-.67 2.41-1.32 3.65-2q6-3.15 12.21-5.86c1.39-.6 2.78-1.18 4.17-1.76.76-.32 1.53-.62 2.31-.93l3.45-1.32c.92-.33 1.81-.67 2.73-1l1.46-.51q2.5-.87 5-1.66c.72-.25 1.46-.46 2.18-.67s1.46-.44 2.2-.65l2.2-.63 2.37-.59 2.13-.52 2.24-.55c.72-.18 1.44-.33 2.18-.51l2.32-.49c.76-.18 1.51-.32 2.27-.48 1.51-.3 3-.58 4.56-.85.77-.14 1.53-.26 2.31-.39s1.53-.25 2.31-.35l2.32-.33q3.22-.45 6.5-.77l1-.11 1.81-.16c.79-.07 1.57-.14 2.36-.19s1.57-.12 2.36-.16 1.58-.14 2.37-.14a191.33 191.33 0 0120.82 35.29C162 43.18 84.36 125.83 84.36 226.6z" style="isolation:isolate" fill="#fff" opacity=".5"/></g></g></svg>