<svg xmlns="http://www.w3.org/2000/svg" xmlns:xlink="http://www.w3.org/1999/xlink" viewBox="0 0 1481.59 1331.4"><defs><linearGradient id="linear-gradient" x1="397.2" y1="1145.42" x2="994.03" y2="1145.42" gradientUnits="userSpaceOnUse"><stop offset="0" stop-color="#bf7839"/><stop offset=".94" stop-color="#bf7839"/><stop offset="1" stop-color="#bf5e26"/><stop offset="1" stop-color="#f2ab6d"/></linearGradient><linearGradient id="linear-gradient-2" x1="418.2" y1="1120.92" x2="994.03" y2="1120.92" gradientUnits="userSpaceOnUse"><stop offset="0" stop-color="#bf7839"/><stop offset=".99" stop-color="#bf7839"/><stop offset="1" stop-color="#bf5e26"/><stop offset="1" stop-color="#f2ab6d"/></linearGradient><linearGradient id="linear-gradient-3" x1="399.86" y1="1071.69" x2="833.47" y2="1143.04" gradientUnits="userSpaceOnUse"><stop offset="0" stop-color="#f2220f"/><stop offset=".99" stop-color="#8c0b0b"/></linearGradient><linearGradient id="linear-gradient-4" x1="458.85" y1="1141.37" x2="994.03" y2="1141.37" xlink:href="#linear-gradient-2"/><linearGradient id="linear-gradient-5" x1="467" y1="1138.59" x2="566.54" y2="1154.97" xlink:href="#linear-gradient-3"/><linearGradient id="linear-gradient-6" x1="666.67" y1="1229.64" x2="712.09" y2="1237.11" xlink:href="#linear-gradient-3"/><linearGradient id="linear-gradient-7" x1="803.55" y1="1269.07" x2="834.51" y2="1274.16" xlink:href="#linear-gradient-3"/><linearGradient id="linear-gradient-8" x1="607.24" y1="1262.78" x2="993.81" y2="1262.78" xlink:href="#linear-gradient"/><linearGradient id="linear-gradient-9" x1="220.54" y1="1064.6" x2="1523.93" y2="1401.77" gradientTransform="rotate(-8.31 -454.274 1311.09)" gradientUnits="userSpaceOnUse"><stop offset="0" stop-color="#8c2f0d"/><stop offset="1" stop-color="#260101"/></linearGradient><linearGradient id="linear-gradient-10" x1="220.65" y1="585.62" x2="1357.4" y2="879.68" gradientTransform="rotate(14.18 -575.262 1000.974)" xlink:href="#linear-gradient-9"/><linearGradient id="linear-gradient-11" x1="554.3" y1="1216.94" x2="974.86" y2="1147.53" gradientTransform="rotate(-8.31 -454.274 1311.09)" gradientUnits="userSpaceOnUse"><stop offset="0" stop-color="#f2c879"/><stop offset=".58" stop-color="#f2c777"/><stop offset="1" stop-color="#f2b84b"/></linearGradient><linearGradient id="linear-gradient-12" x1="661.95" y1="1049.95" x2="834.94" y2="1049.95" gradientTransform="rotate(-2.2 -638.608 1892.249)" xlink:href="#linear-gradient-11"/><linearGradient id="linear-gradient-13" x1="875.71" y1="1142.94" x2="966.3" y2="1142.94" xlink:href="#linear-gradient-11"/><linearGradient id="linear-gradient-14" x1="466.83" y1="835.43" x2="1016.34" y2="744.74" gradientTransform="rotate(3.55 -459.321 1088.693)" xlink:href="#linear-gradient-11"/><linearGradient id="linear-gradient-15" x1="608.32" y1="937.27" x2="781.31" y2="937.27" gradientTransform="rotate(-1.17 -662.216 1399.286)" xlink:href="#linear-gradient-11"/><linearGradient id="linear-gradient-16" x1="789.78" y1="737.47" x2="934.81" y2="737.47" gradientTransform="rotate(3.55 -459.321 1088.693)" xlink:href="#linear-gradient-11"/><linearGradient id="linear-gradient-17" x1="421.75" y1="632.3" x2="657.26" y2="764.13" gradientTransform="matrix(.99 .11 -.11 .99 113.27 57.77)" gradientUnits="userSpaceOnUse"><stop offset="0" stop-color="#88a61c"/><stop offset=".77" stop-color="#365902"/></linearGradient><linearGradient id="linear-gradient-18" x1="498.73" y1="694.79" x2="671.72" y2="694.79" gradientTransform="matrix(.99 .11 -.11 .99 113.27 57.77)" gradientUnits="userSpaceOnUse"><stop offset="0" stop-color="#c5d97e"/><stop offset="1" stop-color="#88a61c"/></linearGradient><linearGradient id="linear-gradient-19" x1="497.23" y1="694.79" x2="673.22" y2="694.79" xlink:href="#linear-gradient-17"/><linearGradient id="linear-gradient-20" x1="-1447.13" y1="560.72" x2="-1440.14" y2="560.72" gradientTransform="matrix(-1.07 .82 -.8 -1.04 -496.61 2547.71)" xlink:href="#linear-gradient-18"/><linearGradient id="linear-gradient-21" x1="-1011.95" y1="158.87" x2="-1004.97" y2="158.87" gradientTransform="matrix(-.38 1.29 -1.25 -.36 405.6 2159.76)" xlink:href="#linear-gradient-18"/><linearGradient id="linear-gradient-22" x1="165.76" y1="498.78" x2="172.74" y2="498.78" gradientTransform="matrix(1.22 .56 -.55 1.19 673.98 144.96)" xlink:href="#linear-gradient-18"/><linearGradient id="linear-gradient-23" x1="-605.58" y1="68.75" x2="-598.6" y2="68.75" gradientTransform="matrix(.21 1.33 -1.29 .21 807.19 1603.47)" xlink:href="#linear-gradient-18"/><linearGradient id="linear-gradient-24" x1="313.09" y1="852.86" x2="320.08" y2="852.86" gradientTransform="matrix(1.34 .03 -.03 1.31 226.16 -289.76)" xlink:href="#linear-gradient-18"/><linearGradient id="linear-gradient-25" x1="-1536.4" y1="1108.08" x2="-1529.41" y2="1108.08" gradientTransform="matrix(-1.34 0 0 -1.31 -1439.59 2237.25)" xlink:href="#linear-gradient-18"/><linearGradient id="linear-gradient-26" x1="-1015.35" y1="1833.33" x2="-1008.37" y2="1833.33" gradientTransform="matrix(-.72 -1.13 1.1 -.7 -2118.11 935.48)" xlink:href="#linear-gradient-18"/><linearGradient id="linear-gradient-27" x1="-474.9" y1="1905.96" x2="-467.92" y2="1905.96" gradientTransform="matrix(.06 -1.34 1.31 .06 -1811.54 59.21)" xlink:href="#linear-gradient-18"/><linearGradient id="linear-gradient-28" x1="137.1" y1="1459.04" x2="144.09" y2="1459.04" gradientTransform="matrix(1.05 -.84 .82 1.02 -698.86 -538.87)" xlink:href="#linear-gradient-18"/><linearGradient id="linear-gradient-29" x1="422.32" y1="1669.12" x2="657.84" y2="1800.95" gradientTransform="rotate(-45.2 -472.002 921.666)" xlink:href="#linear-gradient-17"/><linearGradient id="linear-gradient-30" x1="499.31" y1="1731.61" x2="672.3" y2="1731.61" gradientTransform="rotate(-45.2 -472.002 921.666)" xlink:href="#linear-gradient-18"/><linearGradient id="linear-gradient-31" x1="497.81" y1="1731.61" x2="673.8" y2="1731.61" gradientTransform="rotate(-45.2 -472.002 921.666)" xlink:href="#linear-gradient-17"/><linearGradient id="linear-gradient-32" x1="-913.42" y1="-12.26" x2="-906.44" y2="-12.26" gradientTransform="matrix(-.02 1.34 -1.31 -.02 776.26 1964.11)" xlink:href="#linear-gradient-18"/><linearGradient id="linear-gradient-33" x1="-252.06" y1="22.26" x2="-245.08" y2="22.26" gradientTransform="matrix(.78 1.1 -1.07 .76 1033.96 1016.44)" xlink:href="#linear-gradient-18"/><linearGradient id="linear-gradient-34" x1="409.59" y1="1251.65" x2="416.58" y2="1251.65" gradientTransform="matrix(1.2 -.61 .59 1.17 -376.25 -447.38)" xlink:href="#linear-gradient-18"/><linearGradient id="linear-gradient-35" x1="137.89" y1="280.37" x2="144.88" y2="280.37" gradientTransform="matrix(1.17 .66 -.64 1.14 848.39 355.91)" xlink:href="#linear-gradient-18"/><linearGradient id="linear-gradient-36" x1="244.73" y1="1643.3" x2="251.72" y2="1643.3" gradientTransform="matrix(.86 -1.03 1.01 .83 -995.2 -367.32)" xlink:href="#linear-gradient-18"/><linearGradient id="linear-gradient-37" x1="-1450.12" y1="319.5" x2="-1443.13" y2="319.5" gradientTransform="matrix(-.83 1.05 -1.02 -.81 -53.56 2509.1)" xlink:href="#linear-gradient-18"/><linearGradient id="linear-gradient-38" x1="-1616.1" y1="1335.5" x2="-1609.11" y2="1335.5" gradientTransform="matrix(-1.34 -.14 .13 -1.3 -1494.82 2230.22)" xlink:href="#linear-gradient-18"/><linearGradient id="linear-gradient-39" x1="-1244.71" y1="1854.9" x2="-1237.73" y2="1854.9" gradientTransform="matrix(-1.01 -.88 .86 -.98 -1990 1444.97)" xlink:href="#linear-gradient-18"/><linearGradient id="linear-gradient-40" x1="-410.51" y1="2017.95" x2="-403.53" y2="2017.95" gradientTransform="matrix(-.01 -1.34 1.31 -.01 -1765.82 201.79)" xlink:href="#linear-gradient-18"/><linearGradient id="linear-gradient-41" x1="146.66" y1="1612.37" x2="586.48" y2="1738.03" gradientTransform="rotate(-55.3 -401.035 869.323)" gradientUnits="userSpaceOnUse"><stop offset="0" stop-color="#fffdfe"/><stop offset=".14" stop-color="#fff"/><stop offset="1" stop-color="#f2c9e0"/></linearGradient><linearGradient id="linear-gradient-42" x1="143.85" y1="1619.8" x2="583.83" y2="1745.5" gradientTransform="rotate(-55.3 -401.035 869.323)" gradientUnits="userSpaceOnUse"><stop offset="0" stop-color="#a63272"/><stop offset="1" stop-color="#732f48"/></linearGradient><linearGradient id="linear-gradient-43" x1="147.16" y1="1610.69" x2="586.95" y2="1736.35" xlink:href="#linear-gradient-42"/><linearGradient id="linear-gradient-44" x1="441.28" y1="615.15" x2="868.95" y2="737.35" xlink:href="#linear-gradient-41"/><linearGradient id="linear-gradient-45" x1="435.37" y1="632.72" x2="862.91" y2="754.87" xlink:href="#linear-gradient-42"/><linearGradient id="linear-gradient-46" x1="439.73" y1="618.32" x2="868.51" y2="740.83" xlink:href="#linear-gradient-42"/><linearGradient id="linear-gradient-47" x1="496.66" y1="554.27" x2="869.33" y2="634.79" xlink:href="#linear-gradient"/><linearGradient id="linear-gradient-48" x1="351.01" y1="408.04" x2="910.84" y2="528.99" xlink:href="#linear-gradient"/><linearGradient id="linear-gradient-49" x1="743.98" y1="547.54" x2="744.88" y2="547.73" xlink:href="#linear-gradient"/><linearGradient id="linear-gradient-50" x1="823.74" y1="564.92" x2="824.16" y2="565.01" xlink:href="#linear-gradient"/><linearGradient id="linear-gradient-51" x1="727.08" y1="551.37" x2="743.18" y2="554.85" xlink:href="#linear-gradient"/><linearGradient id="linear-gradient-52" x1="744.25" y1="547.49" x2="744.9" y2="547.63" xlink:href="#linear-gradient"/><linearGradient id="linear-gradient-53" x1="823.54" y1="564.95" x2="824.15" y2="565.09" xlink:href="#linear-gradient"/><linearGradient id="linear-gradient-54" x1="493.83" y1="439.49" x2="906.29" y2="528.61" xlink:href="#linear-gradient"/><linearGradient id="linear-gradient-55" x1="701.25" y1="499.22" x2="718.28" y2="499.22" xlink:href="#linear-gradient-11"/><linearGradient id="linear-gradient-56" x1="479.54" y1="546" x2="496.56" y2="546" xlink:href="#linear-gradient-11"/><linearGradient id="linear-gradient-57" x1="612" y1="510.75" x2="629.07" y2="510.75" xlink:href="#linear-gradient-11"/><linearGradient id="linear-gradient-58" x1="724.2" y1="404.88" x2="740.18" y2="404.88" xlink:href="#linear-gradient-11"/><linearGradient id="linear-gradient-59" x1="588.45" y1="444.69" x2="603.48" y2="444.69" xlink:href="#linear-gradient-11"/><linearGradient id="linear-gradient-60" x1="559.69" y1="368.4" x2="586.11" y2="368.4" xlink:href="#linear-gradient-11"/><linearGradient id="linear-gradient-61" x1="652.14" y1="345.89" x2="665.74" y2="345.89" xlink:href="#linear-gradient-11"/><linearGradient id="linear-gradient-62" x1="662.65" y1="416.36" x2="678.82" y2="416.36" xlink:href="#linear-gradient-11"/><linearGradient id="linear-gradient-63" x1="483.81" y1="440.94" x2="508.86" y2="440.94" xlink:href="#linear-gradient-11"/><linearGradient id="linear-gradient-64" x1="410.21" y1="499.42" x2="426.22" y2="499.42" xlink:href="#linear-gradient-11"/><style>.cls-1{isolation:isolate}.cls-24{mix-blend-mode:multiply}.cls-14{fill:#f2b84b}.cls-24{opacity:.35}</style></defs><g class="cls-1"><g id="Layer_2" data-name="Layer 2"><g id="Layer_2-2" data-name="Layer 2"><path d="M994 1183.82c-.64-9.14-.43-18.49-.81-27.76-.17-4.06-.45-8.11-1-12.11a79.93 79.93 0 00-2.37-11.81q-.74-2.58-1.7-5.13c-.65-1.61-1.33-3.19-2-4.75-23.5-52.84-71.72-82.06-119.3-107.09q-4.64-2.22-9.34-4.37c-1.09-.51-2.18-1-3.28-1.49q-4.25-1.92-8.53-3.76c-1-.46-2.1-.91-3.16-1.35l-2.76-1.16c-1.33-.56-2.65-1.11-4-1.65q-11.52-4.71-23.29-9c-1.47-.53-2.94-1.06-4.42-1.57l-.57-.2c-1.2-.43-2.4-.84-3.6-1.25q-6.78-2.33-13.62-4.49c-1.12-.35-2.24-.71-3.37-1.05l-2.85-.88-3.59-1.07c-1.92-.57-3.84-1.14-5.77-1.69q-4.79-1.36-9.59-2.65l-4.77-1.26c-1.84-.47-3.68-.94-5.52-1.39-1.4-.35-2.8-.7-4.21-1l-4.86-1.15-4.86-1.1c-1.62-.36-3.25-.72-4.88-1.06s-3.25-.69-4.88-1l-4.9-1-4.31-.82-1.32-.24-4.18-.76c-1.72-.31-3.44-.6-5.17-.89l-1.18-.2c-1.72-.28-3.44-.56-5.17-.82s-3.16-.49-4.74-.71c-.61-.1-1.21-.19-1.82-.27-1.67-.24-3.33-.47-5-.69l-5.79-.75c-1.88-.23-3.75-.45-5.63-.66l-.62-.07-4-.42q-1.19-.13-2.37-.24h-.16c-1.55-.16-3.11-.3-4.66-.44-1.93-.18-3.87-.34-5.8-.49s-3.88-.3-5.81-.43c-.71-.05-1.42-.1-2.12-.13h-9.07c-1.93 0-3.89 0-5.83.08-1.43 0-2.86.06-4.28.1-.92 0-1.83 0-2.75.08-1.9.06-3.79.13-5.69.22l-3.86.18-2.34.13c-1.38.07-2.75.15-4.12.24l-2.16.15-2.54.17c-1 .08-2 .15-3.07.24a459.3 459.3 0 00-98 18.34c-3.4 1.16-6.84 2.4-10.3 3.69-1.17.44-2.35.88-3.51 1.33-4 1.55-8 3.18-11.95 4.92l-2 .88c-2.67 1.2-5.32 2.44-7.95 3.74l-.91.44-1.02.52c-1.63.82-3.26 1.66-4.86 2.53-.54.29-1.07.57-1.59.87-1.2.66-2.39 1.34-3.58 2-.58.33-1.16.67-1.73 1l-1.74 1c-.68.41-1.37.83-2 1.26-1.05.65-2.08 1.32-3.11 2-.57.37-1.13.75-1.69 1.13-2.23 1.52-4.42 3.08-6.56 4.72-.54.4-1.07.81-1.6 1.23l-1.58 1.25-1.55 1.28-1.53 1.3-1.73 1.51-1.26 1.15c-.49.46-1 .91-1.47 1.37s-1 .92-1.43 1.39c-1.43 1.4-2.82 2.83-4.16 4.31l-1.33 1.5c-.44.5-.86 1-1.3 1.51s-.84 1-1.27 1.54-.83 1-1.24 1.57-.81 1-1.21 1.58l-.89 1.23-.16.21-.24.35c-.33.45-.64.9-1 1.37l-.07.1v.06c-.54 1.92-2.95 4.36-3.74 6.49-2.11 4.17-4.18 8.33-6.16 12.51l-.65 1.38c-.4.85-.8 1.7-1.18 2.55s-.67 1.48-1 2.22c-.77 1.71-1.52 3.43-2.23 5.15-.42 1-.83 2-1.22 3-.5 1.22-1 2.44-1.43 3.67l-.42 1.11-.66 1.82c-.29.83-.58 1.65-.85 2.48q-1 2.84-1.8 5.71c-.17.62-.35 1.24-.52 1.87a112.762 112.762 0 00-1.47 5.89c-.2.91-.4 1.83-.58 2.76s-.41 2.12-.59 3.18c-16.32 112.06 119.15 180.08 212.94 208.46l3.27 1 3.17.92c2.14.63 4.25 1.22 6.34 1.8 82.33 24.35 235.53 35.87 316.47-20.85 26-18.23 44.58-43.52 50.91-77.72v-.16c.18-1 .35-2 .52-3v-.17c.15-1 .31-2 .45-3.08q.45-3.25.74-6.63c.09-1 .16-1.9.23-2.86 0-.35.05-.7.07-1s0-.55 0-.83v-.49a1 1 0 000-.24v-1.65a2.62 2.62 0 000-.28c0-.86.07-1.73.08-2.61v-3.75c.19-.84.19-1.5.19-2.15z" fill="url(#linear-gradient)"/><path d="M994 1185.78v3.75c0 .88 0 1.75-.08 2.61a2.62 2.62 0 010 .28v1.65a1 1 0 010 .24v1.32c0 .27 0 .7-.07 1-.07 1-.14 1.91-.23 2.86-.2 2.24-.45 4.46-.74 6.63-.14 1-.3 2.06-.45 3.08v.17c-.17 1-.34 2-.52 3v.16c-1.86 2.51-3.8 4.92-5.86 7.27-15.85 18.21-37.28 31.73-62 41.44a271.74 271.74 0 01-45.19 13.07q-5.75 1.17-11.6 2.15c-12.33 2.06-25 3.53-37.77 4.45q-5.91.42-11.86.7a561.17 561.17 0 01-95.11-4q-6.68-.84-13.16-1.81a476 476 0 01-63.83-13.72c-48-13.27-110.64-37.88-157.95-74.53-44.95-34.81-76.09-80.5-67.77-137.63q1-5.75 2.5-11.31l1.06-1.56 1-1.47.24-.35 1.05-1.44c.4-.53.8-1.07 1.21-1.58s.82-1 1.24-1.57.84-1 1.27-1.54.86-1 1.3-1.51l1.33-1.5c1.34-1.48 2.73-2.91 4.16-4.31.47-.47.95-.93 1.43-1.39s1-.91 1.47-1.37l1.26-1.15 1.73-1.51 1.53-1.3 1.55-1.28 1.58-1.25c.53-.42 1.06-.83 1.6-1.23 2.14-1.64 4.33-3.2 6.56-4.72.56-.38 1.12-.76 1.69-1.13 1-.68 2.06-1.35 3.11-2 .67-.43 1.36-.85 2-1.26l1.74-1c.57-.35 1.15-.69 1.73-1 1.19-.68 2.38-1.36 3.58-2 .52-.3 1-.58 1.59-.87 1.6-.87 3.23-1.71 4.86-2.53l1.08-.55.74-.24c2.63-1.3 5.28-2.54 7.95-3.74l2-.88c4-1.74 8-3.37 11.95-4.92 1.16-.45 2.34-.89 3.51-1.33 3.46-1.29 6.9-2.53 10.3-3.69a459.3 459.3 0 0198-18.34c1-.09 2-.16 3.07-.24l2.54-.17 2.16-.15c1.37-.09 2.74-.17 4.12-.24l2.34-.13 3.86-.18c1.9-.09 3.79-.16 5.69-.22.92 0 1.83-.06 2.75-.08 1.42 0 2.85-.08 4.28-.1 1.94 0 3.88-.07 5.83-.08s3.88 0 5.82 0h3.25c.7 0 1.41.08 2.12.13q2.9.2 5.81.43c1.93.15 3.87.31 5.8.49 1.55.14 3.11.28 4.66.44h.16q1.18.1 2.37.24l4 .42.62.07c1.88.21 3.75.43 5.63.66l5.79.75c1.67.22 3.33.45 5 .69.61.08 1.21.17 1.82.27 1.58.22 3.16.46 4.74.71s3.45.54 5.17.82l1.18.2c1.73.29 3.45.58 5.17.89l4.18.76 1.32.24 4.31.82 4.9 1c1.63.33 3.26.67 4.88 1s3.26.7 4.88 1.06l4.86 1.1 4.86 1.15c1.41.33 2.81.68 4.21 1 1.84.45 3.68.92 5.52 1.39l4.77 1.26q4.82 1.28 9.59 2.65c1.93.55 3.85 1.12 5.77 1.69l3.59 1.07 2.85.88c1.13.34 2.25.7 3.37 1.05q6.84 2.16 13.62 4.49c1.2.41 2.4.82 3.6 1.25l.57.2c1.48.51 2.95 1 4.42 1.57q11.78 4.25 23.29 9c1.33.54 2.65 1.09 4 1.65l2.76 1.16c1.06.44 2.11.89 3.16 1.35q4.29 1.85 8.53 3.76c1.1.49 2.19 1 3.28 1.49q4.69 2.14 9.34 4.37c47.58 25 95.8 54.25 119.3 107.09.69 1.56 1.37 3.14 2 4.75s1.21 3.41 1.7 5.13a79.93 79.93 0 012.37 11.81c.53 4 .81 8 1 12.11.38 9.27.17 18.62.81 27.76-.07.69-.07 1.35-.07 2z" style="mix-blend-mode:screen" fill="url(#linear-gradient-2)"/><path d="M993.21 1156c-.19 2.58-.79 4.58-2 5.57-3.72 3-53.62-6.5-58 21-3.25 20.42 6.56 24.94 3 47-.58 3.59-3.15 19.47-12.39 31.84a38.91 38.91 0 01-12.61 11.16c-12 6.49-19.14 1-32.58 1.91a51.06 51.06 0 00-11.42 2.09l-.18.06c-24.48 7.33-31.6 25.82-41.82 21.94-5.64-2.14-6.12-9.22-7.81-16.79-1.38-6.25-3.58-12.82-10.19-17.21-13.49-9-30-5.63-43-3-20.86 4.22-32.93 13-41.92 16.22-4.16 1.47-7.67 1.74-11.08-.22a9.28 9.28 0 01-2.08-1.59c-4.67-4.7-2.26-13-11.92-26.41-2.27-3.16-11.14-15.47-25-20-14.79-4.83-21.87 3.57-42 6-27.54 3.32-50.19-8.07-60-13s-14.07-28.52-44-36c-32-8-26-38.07-27-42-3.1-12.44-35.38-11.13-34-45 .65-15.81 30.91-24.86 28-32-4.71-11.55-12.17-15-18.31-20.32a26.18 26.18 0 01-7.69-10.68c-6.23-16 3-34 7.81-41.68l1.08-.55.9-.34c2.63-1.3 5.28-2.54 7.95-3.74l2-.88c4-1.74 8-3.37 11.95-4.92 1.16-.45 2.34-.89 3.51-1.33 3.46-1.29 6.9-2.53 10.3-3.69a459.3 459.3 0 0198-18.34c1-.09 2-.16 3.07-.24l2.54-.17 2.16-.15c1.37-.09 2.74-.17 4.12-.24l2.34-.13 3.86-.18c1.9-.09 3.79-.16 5.69-.22.92 0 1.83-.06 2.75-.08 1.42 0 2.85-.08 4.28-.1 1.94 0 3.88-.07 5.83-.08s3.88 0 5.82 0h3.25c.7 0 1.41.08 2.12.13q2.9.2 5.81.43c1.93.15 3.87.31 5.8.49 1.55.14 3.11.28 4.66.44h.16q1.18.1 2.37.24l4 .42.62.07c1.88.21 3.75.43 5.63.66l5.79.75c1.67.22 3.33.45 5 .69.61.08 1.21.17 1.82.27 1.58.22 3.16.46 4.74.71s3.45.54 5.17.82l1.18.2c1.73.29 3.45.58 5.17.89l4.18.76 1.32.24 4.31.82 4.9 1c1.63.33 3.26.67 4.88 1s3.26.7 4.88 1.06l4.86 1.1 4.86 1.15c1.41.33 2.81.68 4.21 1 1.84.45 3.68.92 5.52 1.39l4.77 1.26q4.82 1.28 9.59 2.65c1.93.55 3.85 1.12 5.77 1.69l3.59 1.07 2.85.88c1.13.34 2.25.7 3.37 1.05q6.84 2.16 13.62 4.49c1.2.41 2.4.82 3.6 1.25l.57.2c1.48.51 2.95 1 4.42 1.57q11.78 4.25 23.29 9c1.33.54 2.65 1.09 4 1.65l2.76 1.16c1.06.44 2.11.89 3.16 1.35q4.29 1.85 8.53 3.76c1.1.49 2.19 1 3.28 1.49q4.69 2.14 9.34 4.37c47.58 25 95.8 54.25 119.3 107.09.69 1.56 1.37 3.14 2 4.75s1.21 3.41 1.7 5.13c.1.49.2 1 .32 1.53.65 2.94 1.44 6.59 2.05 10.28a55.7 55.7 0 01.95 12.09z" fill="url(#linear-gradient-3)"/><path d="M994 1185.78v3.75c0 .88 0 1.75-.08 2.61a2.62 2.62 0 010 .28v1c0 .76-.07 1.51-.12 2.26 0 .35 0 .7-.07 1-.07 1-.14 1.91-.23 2.86q-.28 3.38-.74 6.63c-.14 1-.3 2.06-.45 3.08v.17c-.17 1-.34 2-.52 3v.16c-6.33 34.2-24.88 59.49-50.91 77.72-75.36 31.62-175 30.84-237 17.3-68.24-13.44-168-49.4-216.42-120a152.18 152.18 0 01-27-109.92 105.09 105.09 0 0114.58-30.56c19.16-27.75 49.72-44.71 77.62-56.5 51.7-19.59 107.73-27 163.92-24.11l4.18.76 1.32.24 4.31.82 4.9 1c1.63.33 3.26.67 4.88 1s3.26.7 4.88 1.06l4.86 1.1 4.86 1.15c1.41.33 2.81.68 4.21 1 1.84.45 3.68.92 5.52 1.39l4.77 1.26q4.8 1.29 9.59 2.65c1.93.55 3.85 1.12 5.77 1.69l3.59 1.07 2.85.88c1.13.34 2.25.7 3.37 1.05q6.84 2.16 13.62 4.49c1.2.41 2.4.82 3.6 1.25l.57.2c1.48.51 2.95 1 4.42 1.57q11.78 4.25 23.29 9c1.33.54 2.65 1.09 4 1.65l2.76 1.16c1.06.44 2.11.89 3.16 1.35q4.29 1.85 8.53 3.76c1.1.49 2.19 1 3.28 1.49q4.69 2.14 9.34 4.37c47.58 25 95.8 54.25 119.3 107.09.69 1.56 1.37 3.14 2 4.75s1.21 3.41 1.7 5.13a79.93 79.93 0 012.37 11.81c.53 4 .81 8 1 12.11.38 9.27.17 18.62.81 27.76-.19.9-.19 1.56-.19 2.21z" style="mix-blend-mode:multiply" fill="url(#linear-gradient-4)" opacity=".25"/><path d="M475.68 1098.13s-4 23 15 25 19 34 19 34 2 22 20 22 29 15 29 15" style="mix-blend-mode:screen" stroke="url(#linear-gradient-5)" stroke-miterlimit="10" fill="none" stroke-width="4"/><path d="M668.68 1219.13s29 9 40 29" style="mix-blend-mode:screen" stroke="url(#linear-gradient-6)" stroke-miterlimit="10" fill="none" stroke-width="4"/><path d="M805.68 1258.13s18 0 25 28" style="mix-blend-mode:screen" stroke="url(#linear-gradient-7)" stroke-miterlimit="10" fill="none" stroke-width="4"/><path d="M951.5 1264.54c-75.69 63.57-229.31 65.45-313.45 48.37-9.73-1.79-20.08-4-30.81-6.59 5.84 1.82 11.53 3.49 17 5 82.33 24.35 235.53 35.87 316.47-20.85 26-18.23 44.58-43.52 50.91-77.72v-.16c.18-1 .35-2 .52-3v-.17c.15-1 .31-2 .45-3.08q.45-3.25.74-6.63c.09-1 .16-1.9.23-2.86 0-.35.05-.7.07-1 0-.53.06-1.07.09-1.61-5.41 29.06-20.64 52.19-42.22 70.3z" fill="url(#linear-gradient-8)"/><path d="M999.34 1038.62c.07.49.13 1 .2 1.58.16 1.19.27 2.35.33 3.52v.42c0 .51.05 1.07.08 1.66.06 1.39.09 2.34 0 3.4a46 46 0 01-.32 4.81c0 .25 0 .48-.05.74a32.29 32.29 0 01-.77 4.53c-.26 1.16-.57 2.3-.87 3.28-.14.4-.29.84-.45 1.28-.54 1.5-1.18 3.07-1.73 4.34 0 .06-.21.5-.57 1.21a40.86 40.86 0 01-6 9.23c-.71.88-1.47 1.78-2.3 2.66a77.9 77.9 0 01-12.08 10.58l-.47.32c-.73.53-1.46 1-2.15 1.51a145.34 145.34 0 01-13 7.7c-1.33.72-2.62 1.41-3.85 2-.85.42-1.72.85-2.64 1.27l-.78.39a252.46 252.46 0 01-25.39 10.15c-3.36 1.11-7.16 2.28-11.08 3.44-4.95 1.47-9.89 2.88-14.14 4.08-1.84.51-3.93 1-6.06 1.53-2.74.7-5.88 1.39-8.93 2l-1.37.32c-2.74.64-5.73 1.28-8.84 1.89-8.23 1.7-18 3.3-26.54 4.57a3 3 0 00-.34.06c-11.76 1.92-27.55 3.6-39.41 4.65-7.8.68-14.84 1.19-21 1.57-4.23.29-8.93.52-13.78.72-3.06.13-5.65.22-7.65.29-6.41.24-15 .41-21.38.47-5.49.1-13.05.05-20.81-.09h-.43c-6.24-.1-14.52-.35-20.8-.62h-.25c-3.1-.13-6.71-.29-10.33-.48s-7.22-.41-10.31-.65c-6.09-.41-14.21-1-20.28-1.63h-.36c-3.84-.33-7.15-.63-10.28-1s-6.07-.68-9.19-1.1c-5.71-.68-13.27-1.61-19-2.53h-.29c-5.59-.91-13-2-18.62-3-5.38-1-12.53-2.28-17.89-3.44-5.16-1-12-2.62-17.1-3.86-4.92-1.19-11.43-2.9-16.3-4.28-4.34-1.14-9.9-3-14.37-4.36l-.89-.28-.65-.2c-4.53-1.41-9.16-3.08-13.55-4.8-4-1.43-9.31-3.68-13.24-5.42l-.24-.11a.15.15 0 01-.07 0c-.08 0-5.09-2.2-11.39-5.46l-.21-.1c-1.1-.55-3.26-1.69-6-3.24a127.68 127.68 0 01-5.51-3.32l-1-.66c-2-1.25-4-2.61-5.9-4l-.27-.19-.67-.49-1.31-1a72.68 72.68 0 01-8.91-7.79l-.2-.24a58.93 58.93 0 01-5.79-6.65l-.14-.21a30.29 30.29 0 01-3.57-5.46c-.09-.17-.19-.35-.27-.53a40.69 40.69 0 01-2-4c-.12-.25-.23-.5-.32-.73l-.16-.39a1.66 1.66 0 00-.06-.16c-.17-.45-.33-.89-.47-1.32s-.32-1.1-.47-1.67a40.73 40.73 0 01-1.33-4c-.37-1.33-.68-2.67-1-4-.54-2.51-1-5-1.36-7.53-.18-1.26-.34-2.52-.47-3.77-.3-1.46-.55-2.92-.76-4.39-.4-4.47-2-8.28-.4-12.94.12-1.4.29-2.8.51-4.18a47.07 47.07 0 017.72-19.39 26.79 26.79 0 012.26-3.84 40.13 40.13 0 012-3.64c7.43-10.89 18.29-19.55 30.13-26.33l2.14-1.39a88.26 88.26 0 0110.49-5.77c3.2-1.59 7.12-3.42 11.69-5.35 3.4-1.43 7.86-3.15 11.55-4.5h.16c1.09-.41 4.79-1.75 10.39-3.54 1.51-.47 3-.93 4.28-1.32h.09c1.25-.38 2.55-.77 3.92-1.16 3.67-1.09 7.7-2.24 11-3l.24-.06c10.3-2.64 21.13-5 32.19-7 5.35-1.05 12.53-2.15 17.92-3l5.06-.71c4.49-.62 9-1.22 13.52-1.76.07 0 3.35-.42 9-1 3.39-.35 7.62-.75 12.52-1.18 2.9-.25 6.12-.52 9.29-.76s6.32-.44 9-.58c12.33-.75 28.79-1.33 41.16-1.42h8.63c3 0 5.9 0 8.8.07h1.69l2.26.05c3 0 6.34.11 9.7.21s6.69.22 9.57.36c5.94.24 13.86.67 19.81 1.08h.09c5.85.39 13.61.94 19.43 1.55h.16l5.68.58c4.51.44 9.34.92 13.27 1.43h.09c5.63.67 13.15 1.59 18.75 2.5 2.95.44 6.39 1 9.77 1.53 2.79.46 5.52.91 7.91 1.33 5.25.93 12.24 2.28 17.46 3.36 5 1 11.48 2.5 16.47 3.71 2.41.55 5.2 1.25 8 2 3 .77 6 1.57 8.51 2.34h.12c8.57 2.44 19.57 6.2 27.84 9.11l1.83.67c1.14.43 2.35.9 3.58 1.41 2.6 1 5.28 2.2 7.58 3.22h.08a125.64 125.64 0 0112 5.78s.49.24 1.3.67c2.14 1.14 6.66 3.62 11.57 6.84 2.06 1.36 4.19 2.82 6.24 4.38a72.7 72.7 0 018 6.79l.36.36.3.29c.31.3.64.65 1 1a72.6 72.6 0 014.86 5.63 3.13 3.13 0 01.22.36 61.08 61.08 0 016.27 12.11c.25.73.53 1.71.76 2.45v.1a1.13 1.13 0 00.08.24c.42 1.34.9 2.81 1.29 4l2 6.22c.61 1.91 1 3 1.47 4.71.06.22.13.44.2.66.43 1.41.65 2.15 1 3.34a.57.57 0 010 .14c.41 1.39.78 2.74 1.11 4 0 .13.06.25.1.39.48 1.75.76 2.89 1.14 4.68.45 2 .76 3.49.91 4.37v.15c.24 1.14.45 2.62.64 3.88.31.3.34.54.39.75z" fill="url(#linear-gradient-9)"/><path d="M992.71 1018.47c0-.26 0-.49.06-.73.07-.68.14-1.38.19-2.08a43.48 43.48 0 01-5.82 8.77c-.72.89-1.49 1.79-2.32 2.7a77.9 77.9 0 01-12.2 10.75l-.47.32c-.74.54-1.46 1.06-2.16 1.54a150.41 150.41 0 01-13.09 7.84c-1.34.73-2.65 1.43-3.89 2.05-.85.43-1.74.86-2.66 1.3l-.79.39a255.25 255.25 0 01-25.56 10.35c-3.38 1.13-7.22 2.32-11.17 3.5-5 1.51-10 2.94-14.26 4.16-1.85.53-3.95 1.06-6.11 1.57-2.76.71-5.92 1.42-9 2.09l-1.38.33c-2.76.67-5.78 1.31-8.92 1.94-8.29 1.75-18.11 3.37-26.75 4.68l-.35.06c-11.85 2-27.77 3.7-39.72 4.79-7.86.71-15 1.24-21.16 1.63-4.26.31-9 .55-13.89.75-3.09.14-5.69.24-7.71.32-6.46.25-15.08.44-21.55.51-5.53.12-13.15.08-21 0h-.43c-6.28-.09-14.63-.32-20.95-.58h-.26c-6.25-.25-14.57-.62-20.8-1.1-6.14-.41-14.32-1-20.44-1.61h-.36c-7.75-.66-13.33-1.23-19.61-2.06-5.75-.68-13.37-1.6-19.14-2.52h-.29c-5.63-.91-13.14-2-18.76-3-5.42-1-12.62-2.29-18-3.46-5.21-1-12.08-2.63-17.23-3.88-5-1.21-11.52-2.93-16.42-4.31-4.37-1.15-10-3-14.48-4.41l-.89-.27-.65-.21c-4.57-1.41-9.23-3.11-13.66-4.84-4.08-1.44-9.39-3.72-13.34-5.47l-.32-.28h-.08c-.07 0-5.12-2.23-11.46-5.53l-.21-.1c-1.11-.55-3.29-1.71-6-3.28-.93-.53-1.87-1.08-2.81-1.64-10.45-6.53-21.5-13-31-20.9a19.94 19.94 0 01-2.09-2.53 19.87 19.87 0 001.41 3.62c6.41 8.37 12.66 16.56 20.65 22.93 1 1 2.06 1.92 3 2.88.77.67 1.56 1.31 2.33 1.93l2.2 1.75 1.28 1 .66.49.26.19c1.9 1.39 3.87 2.73 5.79 4l1 .65c1.77 1.13 3.6 2.23 5.41 3.27 2.64 1.52 4.77 2.66 5.85 3.2l.2.09c6.17 3.22 11.1 5.36 11.17 5.39h.08l.23.11c3.85 1.71 9 3.93 13 5.34 4.32 1.68 8.86 3.34 13.31 4.72l.63.2.87.26c4.39 1.37 9.85 3.18 14.1 4.3 4.78 1.35 11.18 3 16 4.19 5 1.23 11.71 2.81 16.79 3.79 5.26 1.13 12.28 2.43 17.56 3.36 5.47 1 12.79 2.06 18.27 2.94h.29c5.62.89 13 1.79 18.65 2.46 6.12.81 11.56 1.36 19.11 2h.36c6 .61 13.93 1.17 19.91 1.56 6.07.47 14.18.83 20.27 1.07h.24c6.17.24 14.3.47 20.42.56h.42c7.63.12 15.06.16 20.44 0 6.3-.07 14.7-.25 21-.5l7.51-.31c4.77-.2 9.38-.44 13.54-.75 6-.38 13-.9 20.61-1.6 11.65-1.07 27.17-2.77 38.71-4.7h.34c8.42-1.29 18-2.88 26.07-4.59 3.06-.61 6-1.24 8.69-1.9l1.34-.32c3-.65 6.08-1.35 8.77-2 2.11-.51 4.16-1 6-1.54 4.18-1.19 9-2.6 13.89-4.07 3.86-1.15 7.59-2.31 10.89-3.42a247.28 247.28 0 0025-10.12l.77-.38c.9-.43 1.77-.85 2.6-1.27 1.2-.61 2.48-1.29 3.79-2 4.48-2.42 9.11-5.16 12.76-7.66.67-.46 1.38-1 2.1-1.5l.46-.31a77.07 77.07 0 0011.89-10.5c.81-.89 1.56-1.78 2.26-2.64a41 41 0 006-9.17c.35-.7.53-1.13.56-1.19.54-1.27 1.17-2.82 1.7-4.31.17-.44.32-.87.45-1.28.3-1 .61-2.09.87-3.24a33.19 33.19 0 00.63-4.53z" style="mix-blend-mode:screen" fill="url(#linear-gradient-10)" opacity=".65"/><g style="mix-blend-mode:multiply"><path class="cls-14" d="M949.7 960.8c-.81-.43-1.28-.66-1.3-.67a125.64 125.64 0 00-12-5.78h-.08c-2.3-1-5-2.17-7.58-3.22-1.23-.51-2.44-1-3.58-1.41l-1.83-.67c-8.27-2.91-19.27-6.67-27.84-9.11h-.12c-2.53-.77-5.53-1.57-8.51-2.34-2.79-.75-5.58-1.45-8-2-5-1.21-11.51-2.75-16.47-3.71a688.94 688.94 0 00-17.46-3.36c-2.39-.42-5.12-.87-7.91-1.33-3.38-.55-6.82-1.09-9.77-1.53-5.6-.91-13.12-1.83-18.75-2.5h-.09c-3.93-.51-8.76-1-13.27-1.43l-5.68-.58h-.16c-5.82-.61-13.58-1.16-19.43-1.55h-.09c-6-.41-13.87-.84-19.81-1.08-2.88-.14-6.21-.26-9.57-.36s-6.73-.16-9.7-.21l-2.26-.05h-1.69c-2.9 0-5.82-.06-8.8-.07h-8.63c-12.37.09-28.83.67-41.16 1.42-2.73.14-5.87.35-9 .58s-6.39.51-9.29.76c-4.9.43-9.13.83-12.52 1.18-1.4 1.52-2.78 3.07-4.17 4.64-.76 2.17-1.74 4.32-2.13 6-3.53 11.86-13.91 20.41-25.08 23.92-38 13.3-78.61 26.77-102.56 58.38-.77 1-1.52 2-2.25 3.06-.86 1.24 5.34 10 4.51 11.22 50.31-5.8 92.95 26.11 138.66 41.71 5.46 2.09 11 4.15 16.44 6.12 5.73 2 11.51 4 17.31 5.8s11.61 3.46 17.48 4.9c31.44 7.27 75.26 4.19 105 18.52 41.17 19.83 43-45.15 65.11-69.21 6.26-5.72 12.52-11.46 18.93-15.88q7.27-5.74 14.71-11.31c20-14.94 40.77-28.74 62.15-41.85-5.1-3.38-9.62-5.86-11.76-7zm-60.7 2.69a16.54 16.54 0 01-2.21 7.15 38.22 38.22 0 01-9.57 10.92 122.62 122.62 0 01-11.22 7.33 61.36 61.36 0 01-12.6 5.52c-8.2 3.34-18.15 1.91-25.91-3.45a20.32 20.32 0 01-8.13-14.66 17.86 17.86 0 01-.1-3.1c.28-6.61 3.57-13 9.72-16.2a58.7 58.7 0 019.71-3.33c13.3-3.31 26.9-2.06 40.55-1.46a16.26 16.26 0 015 2.22c3.08 2.04 5.42 5.21 4.76 9.06zm-150.78 53.6a11 11 0 01-2.76-9.62c.68-4.07 3.24-8.13 6.65-11.25 6.2-4.24 15.44-9.58 24.29-11.59 4.43-1 8.76-1.17 12.55 0a14.54 14.54 0 013.86 1.88 16.9 16.9 0 015.56 6.55c.05 3.84-2.43 8.43-7.51 13-12.41 6.33-29.22 24.61-42.61 11.03z"/><path d="M948.4 960.13a125.64 125.64 0 00-12-5.78h-.08c-2.3-1-5-2.17-7.58-3.22-1.23-.51-2.44-1-3.58-1.41l-1.83-.67c-8.27-2.91-19.27-6.67-27.84-9.11h-.12c-2.53-.77-5.53-1.57-8.51-2.34-2.79-.75-5.58-1.45-8-2-5-1.21-11.51-2.75-16.47-3.71a688.94 688.94 0 00-17.46-3.36c-2.39-.42-5.12-.87-7.91-1.33-3.38-.55-6.82-1.09-9.77-1.53-5.6-.91-13.12-1.83-18.75-2.5h-.09c-3.93-.51-8.76-1-13.27-1.43l-5.68-.58h-.16c-5.82-.61-13.58-1.16-19.43-1.55h-.09c-6-.41-13.87-.84-19.81-1.08-2.88-.14-6.21-.26-9.57-.36s-6.73-.16-9.7-.21l-2.26-.05h-1.69c-2.9 0-5.82-.06-8.8-.07h-8.63c-12.37.09-28.83.67-41.16 1.42-2.73.14-5.87.35-9 .58s-6.39.51-9.29.76c-4.9.43-9.13.83-12.52 1.18-1.4 1.52-2.78 3.07-4.17 4.64-2.8 3.14-5.56 6.38-8.3 9.69-14.79 17.36-41.67 14.18-60.86 25.48a184.82 184.82 0 00-17.28 10.4 165.19 165.19 0 00-43 42 2.17 2.17 0 001.94 3.38c48.36-3.47 89.8 27 134.16 42.13 5.44 2.1 10.93 4.15 16.43 6.12 5.74 2 11.51 4 17.3 5.79s11.62 3.47 17.48 4.92c31.44 7.26 75.27 4.17 105 18.5 41.12 19.81 43-45 65-69.11l.15-.16c6.23-5.7 12.47-11.4 18.86-15.81q7.26-5.75 14.7-11.31c17.62-13.44 36.04-25.83 54.94-37.64-.81-.43-1.28-.66-1.3-.67zm-210.91 25l.28-.24c6.2-4.21 15.36-9.49 24.16-11.49a24.11 24.11 0 0112.55.06 15.73 15.73 0 019.15 7.92 2.15 2.15 0 01.25 1.08 11.7 11.7 0 01-1 4.09 25.23 25.23 0 01-6.25 8.15 2.72 2.72 0 01-.46.32c-11.86 6.12-27.65 22.8-40.64 12.44a19.51 19.51 0 01-1.75-1.58c-5.78-6.24-2.45-15.01 3.71-20.74zM814.72 962c.28-6.57 3.52-12.9 9.61-16.16l.22-.1a59.84 59.84 0 0111.37-3.7c12.65-2.76 25.58-1.64 38.54-1a1.84 1.84 0 01.47.07c4.91 1.3 10.52 5.51 9.58 11.22a12.55 12.55 0 01-.28 2.15c-1 4.9-4.88 10.49-11.43 15.87l-.13.1c-.93.67-1.89 1.35-2.87 2-2.63 1.83-5.42 3.62-8.33 5.26a61.14 61.14 0 01-12.61 5.52c-8.2 3.35-18.14 1.9-25.92-3.44a18.85 18.85 0 01-3.61-3.46 21.14 21.14 0 01-4.61-14.33z" fill="url(#linear-gradient-11)"/><path d="M701.81 944.23c47.54 4.06 92.06 31.11 99.43 60.41s-25.21 49.74-72.75 45.68-92.07-31.1-99.44-60.4 25.21-49.75 72.76-45.69z" fill="url(#linear-gradient-12)"/><path d="M925.11 949.68c1.14.43 2.35.9 3.58 1.41-13.75 9.69-28.33 16.5-41.87 19.55a66.46 66.46 0 01-17 1.78c1-.67 1.94-1.35 2.87-2l.13-.1c6.55-5.38 10.39-11 11.43-15.87a16.26 16.26 0 00-5-2.22c-13.65-.6-27.25-1.85-40.55 1.46a36.24 36.24 0 01-2.78-11.69 55.42 55.42 0 011.08-14.89c2.79.46 5.52.91 7.91 1.33 5.25.93 12.24 2.28 17.46 3.36 5 1 11.48 2.5 16.47 3.71 2.41.55 5.2 1.25 8 2 3 .77 6 1.57 8.51 2.34h.12c8.57 2.44 19.57 6.2 27.84 9.11z" fill="url(#linear-gradient-13)"/></g><path class="cls-14" d="M1039.39 786.11a4.44 4.44 0 00-3.58.74c-1.84 1.16-3.43 3.27-5.19 4.75a9.05 9.05 0 01-1.5 1 4.38 4.38 0 01-3.17.43c-23.34-4.58-46.67-9.5-69.74-15.39-11.56-3-23.05-6.14-34.46-9.65q-8.54-2.62-17-5.51-8.34-3.69-16.77-7.24c-33.82-14.21-68.52-26-104.93-28.84-4.9-.82-7.65-1.33-7.65-1.33a250.53 250.53 0 01-47.52 42.61q-5.22 3.64-10.6 7.07a227.93 227.93 0 01-25.55 13c-4.37 1.92-8.78 3.75-13.24 5.54-16.77 6.09-33.47 12.42-49.73 19.85a296.75 296.75 0 00-24.47 24c-.8 2.15-1.81 4.29-2.24 5.92-3.74 11.79-14.28 20.15-25.51 23.46-38.25 12.62-79.07 25.36-103.6 56.52-.78 1-1.54 2-2.29 3-.89 1.21 5.16 10 4.31 11.28 50.4-4.88 92.45 27.79 137.88 44.21 5.42 2.18 10.87 4.35 16.33 6.41 5.7 2.15 11.43 4.21 17.19 6.11s11.56 3.67 17.39 5.22c31.31 7.83 75.18 5.53 104.67 20.4 40.8 20.57 43.83-44.37 66.34-68 6.36-5.61 12.72-11.23 19.22-15.54q7.37-5.61 14.91-11c25.1-18.08 51.47-34.39 78.59-49.82 4.11-3.46 8.08-7.11 12.18-10.45.51-.42-3.55-9.14-4.39-12-.13-.49-.19-.79-.1-.88-.44-.17-.26-.25-.1-.29s.27 0 0 0c-3.64 0-3.35 5.27-3.88.07a22.41 22.41 0 01.07-3c.74-7.55 5.72-13.27 12.06-17.32a50.12 50.12 0 0111.12-5.32c12.17-4.26 26.8-5.85 38.06-9.66a22.21 22.21 0 0011.77-6c6.41-4.37 12.74-9.48 19.47-13.07-.6-.12-3.74-11.15-4.35-11.28zm-191.9 110.73a119.17 119.17 0 01-11.4 7.12 61.29 61.29 0 01-12.71 5.3c-8.25 3.19-18.17 1.57-25.84-3.91a20.38 20.38 0 01-7.87-14.81 20.07 20.07 0 010-3.1c.41-6.6 3.81-12.91 10-16a59 59 0 019.77-3.15c13.35-3.08 26.94-1.58 40.57-.73a16.13 16.13 0 015 2.31c3 2.1 5.33 5.31 4.63 9.14a16.56 16.56 0 01-2.34 7.12 38.11 38.11 0 01-9.81 10.71zm-96.79 22.81c-12.54 6.06-29.69 24-42.83 10.22a11 11 0 01-2.58-9.68c.75-4.05 3.39-8.07 6.85-11.13 6.27-4.12 15.61-9.3 24.5-11.15 4.44-.92 8.77-1 12.55.28a14.67 14.67 0 013.82 1.95 16.94 16.94 0 015.44 6.65c-.02 3.83-2.58 8.37-7.75 12.86z"/><path d="M1034.16 784.88q-6.27-1.49-12.54-3.08c-22.8-4.47-45.58-9.27-68.13-15-12.1-3.06-24.14-6.38-36.06-10.06q-8.5-2.61-16.93-5.48l-.17-.07-.26-.11c-39-17.21-79-32.63-121.28-35.92h-.17c-3-.5-5.13-.88-6.37-1.11a2.15 2.15 0 00-2 .72 251.94 251.94 0 01-46.73 41.69c-3.47 2.42-7 4.78-10.6 7.06-4.13 2.47-8.33 4.75-12.59 6.9-4.08 2.2-8.23 4.25-12.4 6.25-22.22 8.74-41.48 21.12-59.22 36.52a296.75 296.75 0 00-24.47 24c-2.86 3.1-5.67 6.28-8.48 9.54-15.09 17.1-41.91 13.43-61.3 24.38A184.4 184.4 0 00517 881.19a165.37 165.37 0 00-43.75 41.18 2.28 2.28 0 00-.35.72 2.16 2.16 0 002.22 2.69c48.41-2.59 89.31 28.62 133.38 44.55 5.41 2.19 10.86 4.35 16.32 6.41 5.7 2.15 11.43 4.21 17.19 6.11s11.56 3.67 17.39 5.23c31.31 7.82 75.19 5.53 104.67 20.39 40.76 20.55 43.83-44.22 66.27-67.93l.16-.16c6.33-5.59 12.67-11.18 19.13-15.47q7.38-5.61 14.91-11A870.76 870.76 0 01943 864.15a1.86 1.86 0 00.32-.23c3.78-3.19 7.45-6.53 11.2-9.64a2.06 2.06 0 00.75-1.38 2 2 0 00-.1-.88 2.47 2.47 0 00-.1-.29 2.09 2.09 0 00-.93-1 17.81 17.81 0 01-2.88-1.92 11.81 11.81 0 01-4.38-8.32c-.44-9.05 5-15.72 12.13-20.29a50 50 0 0111.13-5.32c12.12-4.24 26.7-5.84 37.94-9.63h.22a22.17 22.17 0 0011.55-5.91 1.55 1.55 0 01.24-.19c3-2.05 6-4.28 9-6.43l1.5-1c1.39-1 2.78-1.91 4.19-2.8.73-.47 4.63-2 4.58-2.69-.02-1.01-4.19-1.11-5.2-1.35zm-326.46 113l.28-.22c6.27-4.1 15.53-9.21 24.35-11 4.44-.92 8.77-1 12.55.28a15.71 15.71 0 019 8.08 2.29 2.29 0 01.24 1.09 11.76 11.76 0 01-1.12 4.07 25.34 25.34 0 01-6.4 8 2.13 2.13 0 01-.47.31c-12 5.9-28 22.29-40.85 11.7a19.7 19.7 0 01-1.72-1.61c-5.56-6.35-2.13-15.06 4.14-20.69zm77.62-21.74c.41-6.56 3.76-12.83 9.9-16l.23-.11a60 60 0 0111.43-3.49c12.7-2.53 25.61-1.17 38.55-.36a1.85 1.85 0 01.47.08c4.88 1.39 10.43 5.7 9.38 11.39a12.7 12.7 0 01-.32 2.15c-1.13 4.88-5.07 10.4-11.72 15.65l-.12.1c-.94.66-1.92 1.33-2.91 2-2.66 1.78-5.49 3.52-8.43 5.11a61.4 61.4 0 01-12.7 5.29c-8.26 3.19-18.18 1.57-25.85-3.91a18.85 18.85 0 01-3.56-3.52 21.26 21.26 0 01-4.35-14.37z" fill="url(#linear-gradient-14)"/><path d="M672.76 856.36c47.45 4.92 91.48 32.76 98.32 62.18s-26.1 49.29-73.56 44.37-91.52-32.76-98.33-62.18 26.1-49.29 73.57-44.37z" fill="url(#linear-gradient-15)"/><path d="M933 836.54c-20.91 25.89-50.28 44.29-75.76 49.56a66.79 66.79 0 01-17 1.47c1-.65 2-1.32 2.91-2l.12-.1c6.65-5.25 10.59-10.77 11.72-15.65a16.13 16.13 0 00-5-2.31c-13.63-.85-27.22-2.35-40.57.73a36.26 36.26 0 01-2.53-11.68c-1-16.29 6.86-37 23.31-57.36 16.11-19.94 37.25-35.45 57.76-43.92a104.59 104.59 0 0112.12-4.2l.26.11.17.07q8.43 2.87 16.93 5.48c11.92 3.68 24 7 36.06 10.06a35 35 0 012.7 10.88c1.54 16.52-6.2 37.9-23.2 58.86z" fill="url(#linear-gradient-16)"/><g class="cls-1"><path d="M700.4 847.83l-6.85 16.35c-8.31 19.82-38.76 28.42-76.65 19.39-46.42-11.07-86.44-44.41-89.38-74.48a30.6 30.6 0 012.08-15l6.85-16.35a30.62 30.62 0 00-2.08 15c3 30.07 43 63.41 89.38 74.48 37.89 9.03 68.34.43 76.65-19.39z" fill="url(#linear-gradient-17)"/><path d="M613.1 758.35c46.41 11.06 86.43 44.41 89.37 74.48s-32.3 45.46-78.72 34.39-86.43-44.41-89.38-74.48 32.31-45.46 78.73-34.39z" fill="url(#linear-gradient-18)" stroke="url(#linear-gradient-19)" stroke-width="3" stroke-miterlimit="10"/></g><g class="cls-24"><path d="M604.69 790.5c.79 1-1.34 2.68-1.34 2.68a10.31 10.31 0 01-3-.37s-16.64-9.29-9-15.19c6.4-4.9 13.27 12.88 13.27 12.88" fill="url(#linear-gradient-20)"/><path d="M593.47 799.79c1.25.37.5 3 .5 3a10.18 10.18 0 01-2.61 1.47s-18.91 2.37-16.21-6.94c2.25-7.74 18.32 2.52 18.32 2.52" fill="url(#linear-gradient-21)"/><path d="M609 823.1c.54-1.19 3-.07 3-.07a10.56 10.56 0 011.07 2.81s-.46 19-9.27 15c-7.32-3.37 5.21-17.74 5.21-17.74" fill="url(#linear-gradient-22)"/><path d="M597.38 814.65c1.29-.21 1.72 2.45 1.72 2.45a10.41 10.41 0 01-1.73 2.45s-16.07 10.24-17.61.67c-1.29-8 17.62-5.57 17.62-5.57" fill="url(#linear-gradient-23)"/><path d="M625.37 824.7c0-1.31 2.71-1.25 2.71-1.25a10.26 10.26 0 012.1 2.14s7.18 17.65-2.51 17.45c-8.06-.17-2.3-18.34-2.3-18.34" fill="url(#linear-gradient-24)"/><path d="M620.36 793.26c0 1.31-2.69 1.31-2.69 1.31a10.45 10.45 0 01-2.15-2.09S607.93 775 617.63 775c8.06 0 2.73 18.29 2.73 18.29" fill="url(#linear-gradient-25)"/><path d="M627.06 799.55c-1.1.7-2.54-1.57-2.54-1.57a10.29 10.29 0 01.61-2.94s10.69-15.77 15.9-7.6c4.34 6.79-14 12.11-14 12.11" fill="url(#linear-gradient-26)"/><path d="M638.71 807.74c-1.3-.06-1.18-2.74-1.18-2.74a10.22 10.22 0 012.2-2s17.82-6.74 17.38 2.94c-.37 8.05-18.4 1.85-18.4 1.85" fill="url(#linear-gradient-27)"/><path d="M638.5 820.42c-.82-1 1.27-2.7 1.27-2.7a10.39 10.39 0 013 .28s16.87 8.87 9.33 15c-6.28 5.07-13.59-12.54-13.59-12.54" fill="url(#linear-gradient-28)"/></g><g class="cls-1"><path d="M926.47 699.53l8.53 15.54c10.34 18.83-1.87 48-32.52 72-37.55 29.46-88.55 40-113.92 23.63a30.59 30.59 0 01-10.45-11l-8.54-15.54a30.62 30.62 0 0010.46 11C805.4 811.62 856.4 801 894 771.59c30.6-24.04 42.82-53.23 32.47-72.06z" fill="url(#linear-gradient-29)"/><path d="M802.1 712.18c37.54-29.44 88.55-40 113.92-23.62s15.48 53.58-22.06 83-88.56 40-113.92 23.62-15.49-53.55 22.06-83z" fill="url(#linear-gradient-30)" stroke="url(#linear-gradient-31)" stroke-width="3" stroke-miterlimit="10"/></g><g class="cls-24"><path d="M822 738.77c1.3 0 1.26 2.71 1.26 2.71a10.46 10.46 0 01-2.14 2.11s-17.63 7.25-17.46-2.45c.14-8.06 18.34-2.37 18.34-2.37" fill="url(#linear-gradient-32)"/><path d="M822.33 753.34c1.06-.76 2.62 1.44 2.62 1.44a10.12 10.12 0 01-.48 3S814.56 774 809 766.1c-4.67-6.58 13.37-12.76 13.37-12.76" fill="url(#linear-gradient-33)"/><path d="M850.25 755.67c-.59-1.17 1.81-2.38 1.81-2.38a10.36 10.36 0 012.86.91s14.63 12.21 6 16.58c-7.19 3.64-10.64-15.11-10.64-15.11" fill="url(#linear-gradient-34)"/><path d="M836.4 759.52c.63-1.14 3 .17 3 .17a10.35 10.35 0 01.84 2.89s-2 18.95-10.43 14.2c-7-3.94 6.61-17.26 6.61-17.26" fill="url(#linear-gradient-35)"/><path d="M861.67 743.87c-1-.84.71-2.91.71-2.91a10.67 10.67 0 013-.31s18.28 5.37 12.09 12.83c-5.15 6.2-15.79-9.61-15.79-9.61" fill="url(#linear-gradient-36)"/><path d="M833.94 728.22c1 .82-.64 2.92-.64 2.92a10.18 10.18 0 01-3 .38s-18.4-4.94-12.39-12.54c5-6.32 16 9.24 16 9.24" fill="url(#linear-gradient-37)"/><path d="M843 726.89c-.14 1.3-2.81 1-2.81 1a10.54 10.54 0 01-1.92-2.31s-5.7-18.18 3.94-17.19c8 .84.79 18.48.79 18.48" fill="url(#linear-gradient-38)"/><path d="M856.71 722.87c-.86 1-2.89-.78-2.89-.78a10.71 10.71 0 01-.24-3s5.81-18.15 13.12-11.78c6.08 5.3-10 15.56-10 15.56" fill="url(#linear-gradient-39)"/><path d="M866.5 730.92c-1.31 0-1.33-2.67-1.33-2.67a10.3 10.3 0 012.09-2.17s17.43-7.68 17.51 2c.06 8.07-18.27 2.83-18.27 2.83" fill="url(#linear-gradient-40)"/></g><g class="cls-1"><path d="M822.09 513.39l14.43 2.15C826 514 813.25 522 800.87 540c-24.58 35.7-38.47 97.09-31 137.12 3.69 19.86 11.94 30.73 22.32 32.28l-14.43-2.15c-10.38-1.55-18.63-12.42-22.32-32.29-7.44-40 6.45-101.41 31-137.11 12.38-18 25.11-26.04 35.65-24.46z" fill="url(#linear-gradient-41)"/><path d="M825.5 498.48l14.43 2.15c12 1.79 21.5 14.33 25.76 37.24 8.58 46.19-7.45 117-35.81 158.22-14.28 20.75-29 30-41.13 28.2l-14.43-2.15c12.16 1.81 26.85-7.46 41.13-28.21 28.36-41.18 44.39-112 35.81-158.21-4.26-22.91-13.78-35.45-25.76-37.24z" fill="url(#linear-gradient-42)"/><path d="M784.36 526.68c28.36-41.18 58.31-37.14 66.9 9s-7.45 117-35.81 158.21-58.3 37.15-66.89-9 7.44-117.02 35.8-158.21zm29 156.1c24.58-35.7 38.47-97.08 31-137.11s-33.4-43.54-58-7.84-38.47 97.09-31 137.11 33.39 43.54 58 7.84z" fill="url(#linear-gradient-43)"/></g><g class="cls-1"><path d="M648.05 733.75l-11.18 7.46c25-16.7 24.57-58.19-2.56-97.3-29.43-42.41-79.07-65.91-110.88-52.58a41 41 0 00-6.88 3.68l11.17-7.46a41.09 41.09 0 016.89-3.68c31.81-13.37 81.45 10.17 110.87 52.58 27.14 39.11 27.6 80.6 2.57 97.3z" fill="url(#linear-gradient-44)"/><path d="M657.3 745l-11.17 7.45a47.06 47.06 0 01-8 4.26c-36.7 15.42-94-11.74-127.92-60.67-31.31-45.12-31.86-93-3-112.27l11.18-7.46c-28.89 19.28-28.35 67.15 3 112.27 34 48.93 91.22 76.09 127.93 60.67a47.26 47.26 0 007.98-4.25z" fill="url(#linear-gradient-45)"/><path d="M526.42 572.06c36.7-15.42 94 11.74 127.92 60.67s31.72 101.1-5 116.52-94-11.74-127.93-60.67-31.7-101.1 5.01-116.52zm114.75 165.38c31.8-13.37 33.74-58.58 4.31-101s-79.06-66-110.87-52.58-33.74 58.58-4.31 101 79.06 65.95 110.87 52.58z" fill="url(#linear-gradient-46)"/></g><path d="M865.69 537.87c-4.26-22.92-13.78-35.46-25.76-37.24l-14.43-2.16.4.07c-12.23-2.09-27.09 7.16-41.54 28.14-23 33.35-37.84 86.13-38.11 129.53 2.4-.8 4.79-1.61 7.17-2.45s4.92-1.72 7.36-2.61 4.76-1.7 7.12-2.58c1-36.88 13.71-80.62 33-108.59 9.54-13.87 19.29-21.82 28.09-24 7.1 4.5 12.62 14.44 15.45 29.68 3.64 19.6 2.17 44.32-3.16 68.63a.29.29 0 010 .09l2.07-1.24-.14.07-.38.19 1-.53 2.11-1.33c.94-.3 1.82-.63 2.66-1a15.84 15.84 0 006.77-4.95q5.26-3.48 10.11-7c3.17-21.79 3.52-43.06.21-60.72zm-211.35 94.86c-34-48.94-91.22-76.1-127.92-60.68a46.88 46.88 0 00-8.08 4.35l-.27.17-10.78 7.2c-26.19 17.47-28.18 58.43-5 99.55q8.49 1.41 17.2 2.38 6.07.69 12.25 1.16c-.49-.66-1-1.33-1.43-2-25.09-36.15-27.39-74.34-7.81-93.1l.93-.42c31.81-13.36 81.45 10.18 110.88 52.59a122.73 122.73 0 0117.47 35.89q6.26-1.11 12.49-2.35 5.28-1.05 10.55-2.19c-3.82-13.81-10.6-28.28-20.48-42.55z" style="mix-blend-mode:multiply" opacity=".45" fill="url(#linear-gradient-47)"/><path d="M894.49 498l.24-.51c.07-.14.14-.28.2-.43a149.7 149.7 0 007.18-16.82c.15-.39.28-.78.42-1.17.19-.54.39-1.08.57-1.62 5.79-16.52 8.44-32.15 8.34-46.81A99 99 0 00908 403c-9.86-36-35.56-61.46-67-78.85l-1.37-.75-.33-.18a238.57 238.57 0 00-57.14-21.78l-.29-.07h-.06c-21-5.48-43.74-8.75-66.85-10.18-57.82-4-116.48 3.9-171.85 21.33a446.88 446.88 0 00-70.84 28.31c-27.95 13.73-54.77 31.76-77 52.67q-5 4.62-9.87 9.47c-21.08 21.27-35.21 44.62-41.89 68.44-8 26.74-6.67 54.93 8 83 8.4 16.63 21.1 32.5 38.33 47 .77.5 1.55 1 2.33 1.45 16.55 14.21 42.08 24.87 75 30 2.69.43 5.39.82 8.09 1.2l.4.07q-4.26-.6-8.49-1.27c4.42.81 8.94 1.53 13.53 2.17 55.36 9.5 117.48 5 177.6-8.43a595.66 595.66 0 0082.85-23.43c30.18-10.67 58.43-23.53 83-38.28l2.11-1.33c4.26-1.35 7.49-3.29 9.43-5.93q10.54-6.94 19.38-14c11.88-9.28 21.14-18.39 28.63-28.38a98.08 98.08 0 0010.45-16.6v.08c.13-.3.23-.52.34-.73zm-70.3 66.84a6.94 6.94 0 01-1 .53zm-18.19 9.9q9.24-4.8 18.16-9.92-8.88 5.11-18.16 9.92zm-11.63 5.85l.14-.06zm3.94-1.94l1.31-.65zm3.9-2l2.46-1.25z" fill="url(#linear-gradient-48)"/><g class="cls-24"><path d="M743.9 547.93l.3-.15.74-.44z" fill="url(#linear-gradient-49)"/><path d="M824.19 564.82l-.49.29a4.53 4.53 0 00.49-.29z" fill="url(#linear-gradient-50)"/><path d="M725.74 558.37q9.39-5.13 18.46-10.59-9.07 5.44-18.46 10.59z" fill="url(#linear-gradient-51)"/><path d="M744.2 547.78l.23-.12.51-.32z" fill="url(#linear-gradient-52)"/><path d="M823.49 565.22l.7-.4-.7.4z" fill="url(#linear-gradient-53)"/><path d="M908 403c-9.86-36-35.56-61.46-67-78.85l-1.37-.75-.33-.18a228.34 228.34 0 00-41.84-17.52c16.74 16.46 29.6 36.75 36 61.54a115.15 115.15 0 013.72 30.76c.1 16.32-2.7 33.72-8.81 52.1-.2.61-.41 1.2-.61 1.81-.15.43-.29.87-.44 1.3a173.45 173.45 0 01-7.59 18.72l-.21.47-.26.57c-.12.25-.23.5-.34.76a.29.29 0 010-.09 110 110 0 01-11.05 18.47c-7.91 11.12-17.7 21.26-30.26 31.58q-9.35 7.85-20.48 15.59c-2.06 2.94-5.48 5.09-10 6.6l-2.23 1.48-.51.32c-25.84 16.28-55.51 30.48-87.21 42.28A606.49 606.49 0 01569.64 616c-37.52 8.79-75.77 14.15-112.86 14.9 3.4.69 6.87 1.32 10.45 1.88 2.69.43 5.39.82 8.09 1.2l.4.07q-4.26-.6-8.49-1.27c4.42.81 8.94 1.53 13.53 2.17 55.36 9.5 117.48 5 177.6-8.43a595.66 595.66 0 0082.85-23.43c30-10.6 58-23.36 82.49-38l-.21.11q-8.58 4.9-17.46 9.52 8.88-4.62 17.46-9.52l-.28.13 1-.53 2.11-1.33c4.26-1.35 7.49-3.29 9.43-5.93q10.54-6.94 19.38-14c11.88-9.28 21.14-18.39 28.63-28.38a98.08 98.08 0 0010.45-16.6v.08c.12-.23.22-.45.33-.68l.24-.51c.07-.14.14-.28.2-.43a149.7 149.7 0 007.18-16.82c.15-.39.28-.78.42-1.17.19-.54.39-1.08.57-1.62 5.79-16.52 8.44-32.15 8.34-46.81A99 99 0 00908 403z" fill="url(#linear-gradient-54)"/></g><g style="mix-blend-mode:multiply" opacity=".65"><path d="M712.39 488.8s-22.5 18.24-3.56 20.65 3.56-20.65 3.56-20.65z" fill="url(#linear-gradient-55)"/><path d="M490.27 537.15s-22 15.07-3 17.49 3-17.49 3-17.49z" fill="url(#linear-gradient-56)"/><path d="M619.7 501.91s-18.05 18.55 1.13 17.65-1.13-17.65-1.13-17.65z" fill="url(#linear-gradient-57)"/><path d="M725 394.5s-5.13 25.76 10.25 19.89S725 394.5 725 394.5z" fill="url(#linear-gradient-58)"/><path d="M601.88 434s-23.55 16.31-8.28 20.81 8.28-20.81 8.28-20.81z" fill="url(#linear-gradient-59)"/><path d="M559.69 359.76S574 387.06 584.22 373s-24.53-13.24-24.53-13.24z" fill="url(#linear-gradient-60)"/><path d="M665.74 338.63s-20.77 7.42-11 13.37 11-13.37 11-13.37z" fill="url(#linear-gradient-61)"/><path d="M662.65 408s2.06 22.5 13.24 15.37S662.65 408 662.65 408z" fill="url(#linear-gradient-62)"/><path d="M483.81 432.67s12.84 26.52 23.09 12.5-23.09-12.5-23.09-12.5z" fill="url(#linear-gradient-63)"/><path d="M411 491s-5 23 10.32 15.2S411 491 411 491z" fill="url(#linear-gradient-64)"/></g><path d="M899.18 424.63h404m-373 283h334m-271 316h255m-1026 210h255m-273-573h292m-228 257h217" stroke="#a4a4a4" opacity=".5" fill="none" stroke-width="4" stroke-miterlimit="10"/><path d="M1316.27 436.51a132.56 132.56 0 0116-38.74c2.17-3.54 4.44-7.71 8-10.06 2.66-1.76 6.08-1.8 8.18.81 1.87 2.31 2.36 5.63 2.5 8.51.19 4.16-.55 8.33-1 12.46l-1.86 15.59-4.23 35.4c-.17 1.43 1.69 1.79 2.56 1.06a121.58 121.58 0 0035.75-50.72 118 118 0 004.89-16.88l-3-.4a38.94 38.94 0 0016.71 32.4 1.52 1.52 0 002.26-1.3 21.36 21.36 0 017.21-17.14 21 21 0 0118.64-4.3c6.14 1.54 10.84 6.08 16 9.4a23.11 23.11 0 008.18 3.54 18 18 0 009.72-1.21c3.27-1.24 6.86-3.28 10.47-2.66 2.3.4 5.74 2 5.29 4.9-.29 1.89 2.6 2.7 2.9.8 1-6.75-7-9.72-12.45-8.45-3.86.9-7.32 3.12-11.26 3.76a14.72 14.72 0 01-9.37-2.09c-5.94-3.29-10.82-8.4-17.41-10.51a23.72 23.72 0 00-31 24l2.26-1.29a35.82 35.82 0 01-15.23-29.81c0-1.66-2.59-2.08-2.95-.4a118 118 0 01-39.86 66.28l2.56 1.06 4-33.67 2-16.58c.53-4.42 1.35-8.9 1.12-13.36-.17-3.27-.77-6.86-2.7-9.6a8.64 8.64 0 00-8.86-3.68c-4.22.82-7.31 4.52-9.61 7.88a126.57 126.57 0 00-7.67 12.87 136.73 136.73 0 00-11.74 31.38c-.45 1.87 2.45 2.67 2.9.79zM1296 729.1l.73-94.46.2-26.49-2.79.76c7.54 17.32 9.26 36.42 10.22 55.08s1.07 37.75 5.25 56.14a93.92 93.92 0 0011.39 28.56 1.51 1.51 0 002.59 0c11.63-24.93 16.81-52.1 20.42-79.19 1-7.69 1.93-15.39 2.83-23.09l-3 .39 10 54.87a1.51 1.51 0 002.74.36l8.82-20.88-2.8-.76a139.22 139.22 0 009.4 36.51 1.52 1.52 0 002.74.35 140.12 140.12 0 0112.26-16.91c1.24-1.47-.87-3.6-2.12-2.12a145.59 145.59 0 00-12.71 17.52l2.75.36a136.18 136.18 0 01-9.27-35.71c-.14-1.26-2.14-2.31-2.79-.76l-8.86 20.88 2.74.36-10-54.86c-.33-1.81-2.77-1.14-3 .4-3.12 26.79-6.32 53.83-14.6 79.61a181.52 181.52 0 01-8.24 21.15h2.59c-9.81-15.88-13.13-34.44-14.57-52.79-1.49-18.92-1.23-38-4-56.81a118.22 118.22 0 00-8.25-30.17c-.63-1.43-2.79-.62-2.8.75l-.73 94.46-.2 26.49a1.5 1.5 0 003 0zm-38.44 321.23a108.72 108.72 0 0022.13-35.31l-2.74.36 16.42 26.87a1.52 1.52 0 002.36.31l24.19-28.93 6-7.23c1.61-1.92 3.25-4.08 5.53-5.25 4.27-2.2 6.46 2.83 8.65 5.51a8.09 8.09 0 009 2.86c3.2-1 5.82-3.33 8.51-5.28 2-1.4 4.89-3.75 7.47-2.67 1.78.74 2.49 2.62 2.95 4.35a39.81 39.81 0 001.79 6.34c3.77 8.37 14.91 12.16 23 8 1.72-.89.21-3.48-1.51-2.59-6.9 3.55-16.71-.31-19.2-7.72-1.32-3.92-1.26-9-5.57-11-3-1.41-6.12-.15-8.71 1.51-2.83 1.82-5.32 4.16-8.33 5.67a6.55 6.55 0 01-3.74.82 6.28 6.28 0 01-3.9-2.83c-2.36-3.13-4.61-7-9.18-6.47a11.08 11.08 0 00-6.14 3.48c-2.05 2-3.8 4.37-5.65 6.58l-27.38 32.72 2.36.31-16.42-26.87a1.53 1.53 0 00-2.75.35 104.81 104.81 0 01-21.35 34c-1.32 1.41.8 3.54 2.12 2.12zM202.51 1253l-.12-54.25a1.51 1.51 0 00-2.95-.4l-16.88 44.81 2.95.4a72.1 72.1 0 00-8.14-30.82 1.51 1.51 0 00-2.59 0l-14.32 23.84 2.74 1.15c.78-3.86-1.26-7.44-4.51-9.5a11.27 11.27 0 00-11.26-.24c-8.71 4.38-10.3 14.79-13.5 23-1.7 4.37-4.34 8.64-8.68 10.76l2.2.9-13.08-51.2c-.48-1.87-3.37-1.07-2.89.8l13.08 51.2a1.52 1.52 0 002.2.89c7.48-3.65 10-12.1 12.4-19.39 1.27-3.86 2.71-7.81 5.43-10.89 2.28-2.58 5.69-4.92 9.31-4.45 3.41.45 7.16 3.6 6.41 7.35a1.5 1.5 0 002.74 1.15l14.32-23.84h-2.59a68.63 68.63 0 017.73 29.31 1.5 1.5 0 002.94.4l16.88-44.81-2.94-.4.12 54.25a1.5 1.5 0 003 0zm38.61-318.88l-36.38-38.94c-4.14-4.43-10.64-13.49-17.77-9.5-2.64 1.49-4 4.44-4.88 7.23a99 99 0 00-2.36 11.58 281.28 281.28 0 00-3.5 29.38l2.8-.76-11.34-17.74a1.52 1.52 0 00-2.59 0c-4.79 7.94-10.24 17-19.37 20.41-10.07 3.8-21.08.45-29.92-4.85a131.34 131.34 0 01-14.94-11c-1.49-1.2-3.62.91-2.12 2.12 8.9 7.22 18.26 14.81 29.71 17.39a32.6 32.6 0 0016.27-.18 29.2 29.2 0 0012.9-8.22c4-4.23 7.07-9.21 10.06-14.16h-2.59l11.34 17.73a1.51 1.51 0 002.79-.75q.81-12.3 2.71-24.47 1-6.06 2.18-12.07c.56-2.72 1.13-5.89 3.08-8 2.27-2.47 5.39-1.56 7.78.24 3 2.26 5.43 5.39 8 8.12l17 18.19 19 20.39c1.32 1.41 3.44-.72 2.12-2.13zm-64.49-256.95c-6.59-12.11-14.79-26-28.58-30.76-15.87-5.47-31.48 5.05-39.83 18-5.3 8.21-8.52 17.55-11.69 26.74l2.51-.66A37.34 37.34 0 0189 669.16c-.15-1.29-2.11-2.28-2.8-.76-2.49 5.5-9.05 6.79-14.47 5.46-7.07-1.73-11.35-8-13.79-14.46a91.41 91.41 0 01-3.49-12.83 1.52 1.52 0 00-2.51-.67L32 667.42l2.57 1.06a20.48 20.48 0 00-6.75-17.08 19.75 19.75 0 00-18-4.17 20.07 20.07 0 00-9.36 5.4c-1.35 1.38.77 3.5 2.12 2.12a17.39 17.39 0 0119.63-3.59 17.52 17.52 0 019.4 17.32 1.51 1.51 0 002.56 1.06L54 648l-2.5-.67c1.82 8.39 3.92 17.34 9.94 23.81a19.31 19.31 0 0019.14 5.51 12.7 12.7 0 008.16-6.76l-2.8-.76a40.65 40.65 0 0011 23.47 1.51 1.51 0 002.5-.66c5.08-14.73 10.79-31 24.82-39.52 6.24-3.8 13.67-5.61 20.86-3.79 6.4 1.62 11.71 5.73 16.06 10.56 5.21 5.81 9.17 12.64 12.88 19.46.93 1.7 3.52.18 2.59-1.51z" fill="#a4a4a4"/><text transform="matrix(1.29 0 0 1 240.18 107.49)" font-size="142" font-family="BradleyHandITC,Bradley Hand ITC" letter-spacing=".21em" fill="#a4a4a4" stroke="#a4a4a4" stroke-miterlimit="10">Hamburger</text></g></g></g></svg>