<svg xmlns="http://www.w3.org/2000/svg" viewBox="0 0 999.5 701"><defs><style>.cls-1{isolation:isolate;}.cls-2,.cls-4{fill:#e0ceca;}.cls-2,.cls-20{stroke:#6eaf2f;}.cls-11,.cls-14,.cls-16,.cls-18,.cls-19,.cls-2,.cls-20{stroke-linecap:round;}.cls-11,.cls-14,.cls-15,.cls-16,.cls-18,.cls-19,.cls-2,.cls-20{stroke-miterlimit:10;}.cls-16,.cls-18,.cls-2{stroke-width:13px;}.cls-3{fill:#f7e6e2;}.cls-5,.cls-6{fill:#dd562c;}.cls-6,.cls-9{opacity:0.3;}.cls-6,.cls-8,.cls-9{mix-blend-mode:multiply;}.cls-7,.cls-8{fill:#a53c23;}.cls-8{opacity:0.65;}.cls-10,.cls-15{fill:#f4ce82;}.cls-11{stroke:#000;}.cls-12{fill:#893019;}.cls-13{fill:#fff;}.cls-14,.cls-16,.cls-18,.cls-19,.cls-20{fill:none;}.cls-14{stroke:#dd562c;stroke-width:16px;}.cls-15,.cls-16{stroke:#ea7b5e;}.cls-15{stroke-width:0.25px;}.cls-17{fill:#e0ad63;}.cls-18{stroke:#f7d89d;}.cls-19{stroke:#ce9955;stroke-width:26px;}.cls-20{stroke-width:15px;}</style></defs><g class="cls-1"><g id="Layer_2" data-name="Layer 2"><g id="Layer_1-2" data-name="Layer 1"><line class="cls-2" x1="932" y1="421.5" x2="940.5" y2="375"/><path class="cls-2" d="M935.85,436.9s14-40.14,15.65-38.87"/><ellipse class="cls-3" cx="500" cy="556.5" rx="499.5" ry="144.5"/><path class="cls-4" d="M132.5,485c-4,0-10,24-10,24s213,65,245,56-35,74-35,74,117-36,186-37,169,54,169,54,144,20,197-46,47-88,47-88Z"/><path class="cls-5" d="M670.5,632s-41.66-12.35-69-11.12l7.81-2.47s23.44-3.7,20.83-7.41"/><path class="cls-5" d="M670.5,632s-41.66-12.35-69-11.12l7.81-2.47s23.44-3.7,20.83-7.41"/><path class="cls-6" d="M671.5,631s-41.66-12.35-69-11.12l7.81-2.47s23.44-3.7,20.83-7.41"/><path class="cls-5" d="M894.5,489.27c0,123.77-109.88,45.06-212.64,45.06-82.7,0-213.36-82-200.47-132.59,3.12-12.26,14.7-22.68,37.45-29.62,33.54-10.24,60.23-39.47,94-65,25.7-19.43,55.51-36.74,95.58-41.92,73.35-9.51,137.49,46.62,167.68,125q2.13,5.53,4,11.2c.28.81.54,1.62.8,2.43a277.95,277.95,0,0,1,13.55,85.5Z"/><path class="cls-6" d="M612.86,307.1a315.17,315.17,0,0,1-3.54,39.66c-6.46,40.71-20.7,79.63-47.33,110.76-2.9,3.39-5.93,6.65-9,9.79-32.7-19.56-60-43.49-71.55-65.57,3.12-12.26,14.7-22.68,37.45-29.62C552.38,361.88,579.07,332.65,612.86,307.1Z"/><path class="cls-5" d="M578.8,186S600,112,492.54,44.29C422.21,0,416.59,24.6,252.5,0c0,0,34.24,145.82,47.12,142.79S578.8,186,578.8,186Z"/><path class="cls-6" d="M545.79,180.32c11.67-3.2,23.44-6.56,34.71-10,0-11.83-2.29-29.49-12.65-49.92-134.43-11.89-240-80.1-287.67-116.51q-13-1.71-27.68-3.9s.14.61.41,1.73l147,154.4C451.19,164.26,510,174.21,545.79,180.32Z"/><path class="cls-7" d="M566.5,195S308.5,144.24,296,147.58C285.44,150.4,244.5,40,252.5,1c5.17,6.59,14.05,16.32,28.88,29,13.27,11.33,31.3,25,55.71,40.88l.16.11c47.67,31,119.64,70.3,227.9,116.86A51.1,51.1,0,0,1,566.5,195Z"/><path class="cls-8" d="M431.45,127.7c-21.44,6.66-76.56,22.85-94.85,19.36C309,141.81,289.57,67.72,281.38,30c13.27,11.33,31.3,25,55.71,40.88l.16.11C360.1,87.05,390.66,106,431.45,127.7Z"/><path class="cls-7" d="M128.84,467.44C10.69,457.39,0,188.5,0,188.5c45,3,229-13,229-13L128.5,467"/><path class="cls-8" d="M158.29,234.21,68.89,187c-9.82.51-19.23,1-27.9,1.26,6.74,37.48,30.63,129.53,110.11,213.15l31.74-92.06C171,269.07,158.29,234.21,158.29,234.21Z"/><path class="cls-5" d="M2,188.5H2c19.13,17.31,67.6,54.62,195.85,80.12L229,175.5S204.5,160,2,188.5Z"/><path class="cls-6" d="M21,203.62c27.32,19.09,78.74,45.5,176.83,65L229,175.5s-4.16-2.63-23.22-3.73C159.69,229.17,75.21,218.47,21,203.62Z"/><g class="cls-9"><path class="cls-6" d="M201.5,215c5.23-5,4.13-3.94-.47.43Z"/><path class="cls-6" d="M155.16,259c14.61-13.89,36.9-35.08,45.87-43.59-16.86,15.32-69.91,25.88-92.82,29.84C122.14,250,137.72,254.59,155.16,259Z"/></g><path class="cls-5" d="M571.93,428a265.25,265.25,0,0,1-31.18,50.45l-.07.09a190,190,0,0,1-45.5,41.73c-20.07,12.94-42.28,21.34-65.52,26.26q-4.07.87-8.16,1.59c-8.82,1.54-17.78,2.62-26.8,3.28l-.4,0c-2.91.21-5.84.38-8.76.5l-.46,0c-6.23.26-12.5.33-18.76.23a434.54,434.54,0,0,1-75.78-8.44l-2.13-.43C231.3,531.94,181,512.21,154,500.42c-13.32-5.81-21-9.69-21-9.69s0-.12-.08-.35c-1.41-6.27-21.08-97,1.51-187,10.34-41.21,29.53-82.27,63.36-115q4.69-4.54,9.76-8.87,6.46-5.5,13.57-10.62a222.75,222.75,0,0,1,34.3-20.19,244.69,244.69,0,0,1,28.35-11.36q1-.36,2.07-.69c149.25-48.2,331.74,41.63,331.74,41.63s.19,4.2.23,11.71C618.06,226,615,338.57,571.93,428Z"/><path class="cls-10" d="M620.45,181.54c-.9,47.17-7.92,167-46.46,246.32a264.59,264.59,0,0,1-31.89,50.93h0a190.78,190.78,0,0,1-45.59,41.28c-22.91,14.63-48.58,23.44-75.39,28l-.55.09c-4.91.82-9.87,1.5-14.85,2.05a313.29,313.29,0,0,1-39.3,1.75c-37.6-.6-75.36-7.17-109.3-15.8l-.22-.06A705.76,705.76,0,0,1,154,500.42c-13.32-5.81-21-9.69-21-9.69s0-.12-.08-.35c-.14-.63-.46-2.1-.91-4.33h0a165.09,165.09,0,0,1,5.76-16.19c1.23-3,2.55-6,4-8.93,16.12-38.09,37.41-73.77,70.82-99.47q5-3.88,10.44-7.45c2.93-2.37,5.95-4.63,9-6.74,15.51-10.58,33.22-17.7,54.21-19.05,3.61-.57,7.19-1,10.79-1.2,32.31-2.13,65.5,8.88,90,31.89a95.67,95.67,0,0,1,7.59,8.07c11.72,14,19.25,31.11,20.05,50.6a3.46,3.46,0,0,0,4.63,3.09l22.71-8.06a3.58,3.58,0,0,0,1.28-.81l17.24-17.13a3.44,3.44,0,0,0,.1-4.79c-2.49-2.69-6.78-7.39-11.61-13-2.42-2.8-5-5.82-7.51-8.94-27-33.37-43.59-87.49-22.18-127.17a76.2,76.2,0,0,1,5.63-8.89C456.5,186,514.5,179,565.49,176.75c2.06-.11,4.18-.2,6.32-.28,15-.57,31.13-.36,45.61,1.59A3.46,3.46,0,0,1,620.45,181.54Z"/><path d="M294,436.68A46.12,46.12,0,0,0,306,442a43.89,43.89,0,0,0,12.5,1.41,67.77,67.77,0,0,0,24.25-5.72c1.94-.8,3.85-1.69,5.73-2.63s3.75-1.9,5.58-2.94c.91-.52,1.81-1.05,2.7-1.6l.34-.21a7.33,7.33,0,0,1,1.39-.64,6.73,6.73,0,0,1,8.7,7.41,5.66,5.66,0,0,1-.27,1.13,5.9,5.9,0,0,1-.43,1c-.08.16-.17.31-.26.46l-.16.24-.11.18-.48.72-.95,1.44c-.65,1-1.3,1.9-2,2.84a135.33,135.33,0,0,1-8.62,10.82,116.64,116.64,0,0,1-9.91,9.85l.46-.44a54.57,54.57,0,0,1-11.27,9.16,61.66,61.66,0,0,1-13,5.92,72.06,72.06,0,0,1-27.57,3.13,73.68,73.68,0,0,1-26.3-7c-8.12-4-15.52-9.61-20.49-16.88a64.82,64.82,0,0,0,22.6,11.43,80.8,80.8,0,0,0,24.45,3.05,72.17,72.17,0,0,0,23.57-4.46,50.1,50.1,0,0,0,19.2-12.53l.2-.22.26-.22a112.93,112.93,0,0,0,9-8.79c2.9-3.06,5.63-6.33,8.27-9.66.65-.84,1.31-1.68,1.95-2.53l.95-1.27.47-.65.12-.16,0,0-.07.11c-.06.09-.11.18-.16.27a5.42,5.42,0,0,0-.27.63,5.2,5.2,0,0,0-.17.73,4.29,4.29,0,0,0,.56,2.86,4.23,4.23,0,0,0,2.05,1.74,4.31,4.31,0,0,0,2.92.09,2.46,2.46,0,0,0,.65-.28l-.39.2c-1,.54-2.09,1.05-3.14,1.55a92.84,92.84,0,0,1-13,5.07c-8.9,2.69-18.45,4.07-27.82,2.72a42.46,42.46,0,0,1-13.35-4.2A37.3,37.3,0,0,1,294,436.68Z"/><path d="M517.86,291.81a36.49,36.49,0,0,1,4.22,12.61,41.22,41.22,0,0,1-.51,13.69c-1.83,9.08-6.24,17.43-11.65,24.74A92.51,92.51,0,0,1,501,353.16c-.81.8-1.63,1.6-2.47,2.38l-.31.29c-.29.26.28-.2.49-.52a4.36,4.36,0,0,0,.91-2.8,4.28,4.28,0,0,0-.95-2.53,4.39,4.39,0,0,0-2.52-1.51,5,5,0,0,0-.75-.08,4.84,4.84,0,0,0-.69,0l-.31.05-.13,0,.05,0,.19-.05.74-.22,1.49-.46c1-.31,2-.63,3-1,3.93-1.33,7.83-2.76,11.6-4.42a110.29,110.29,0,0,0,11-5.38l.29-.17.28-.11a48.86,48.86,0,0,0,17.81-13.48,70.44,70.44,0,0,0,11.87-20.17,78.87,78.87,0,0,0,5.28-23.45,63.41,63.41,0,0,0-3-24.55c5.07,6.95,7.86,15.62,8.84,24.4A71.8,71.8,0,0,1,561.46,306a70.28,70.28,0,0,1-12,24.36,60,60,0,0,1-9.75,10,53.22,53.22,0,0,1-12.16,7.36l.57-.28a114.9,114.9,0,0,1-12.34,5.88A131.37,131.37,0,0,1,503,357.7c-1.08.3-2.17.59-3.26.87l-1.64.41-.82.19-.21.05-.27.06a4.34,4.34,0,0,1-.52.09,5.4,5.4,0,0,1-1.09.07,5.76,5.76,0,0,1-1.15-.12,6.73,6.73,0,0,1-5.41-6.34,6.65,6.65,0,0,1,1.39-4.31,6.94,6.94,0,0,1,1.06-1.09l.3-.24c.8-.63,1.59-1.29,2.37-2,1.55-1.33,3.07-2.71,4.54-4.14s2.93-2.88,4.31-4.4a66.31,66.31,0,0,0,13.27-20.37,43,43,0,0,0,2.85-11.94A45.46,45.46,0,0,0,517.86,291.81Z"/><path class="cls-11" d="M507.71,444.72c-30.59,6.45-19,22.91-14.73,27.83a1.32,1.32,0,0,0,2.17-.28l13.28-26.61A.66.66,0,0,0,507.71,444.72Z"/><path class="cls-12" d="M469.24,391.65c6.39,8.67,3.59,24.91-10.55,35.34s-34.25,11.08-40.64,2.41-1.54-25.95,12.59-36.38S462.85,383,469.24,391.65Z"/><ellipse class="cls-13" cx="446.29" cy="405.37" rx="12.49" ry="6.78" transform="matrix(0.87, -0.5, 0.5, 0.87, -142.89, 277.46)"/><path class="cls-6" d="M557.5,487.6c-36.41,31.6-80.87,50.18-127.84,59-2.84.55-5.69,1-8.55,1.5l-.55.09q-7.4,1.19-14.85,2.05c-4,.48-8.08.88-12.13,1.23l-.41,0-2.45.2c-1.72.11-3.45.21-5.18.3l-.46,0c-6.23.26-12.5.33-18.76.23a434.54,434.54,0,0,1-75.78-8.44l-2.13-.43c-10.71-2.14-21.17-4.57-31.3-7.19l-.22-.06A705.76,705.76,0,0,1,154,500.42c-13.32-5.81-21-9.69-21-9.69s0-.12-.08-.35c-.14-.63-.46-2.1-.91-4.33h0c-4-20.09-17.91-101.67,2.42-182.71,10.34-41.21,29.53-82.27,63.36-115q4.69-4.54,9.76-8.87,6.46-5.5,13.57-10.62a222.75,222.75,0,0,1,34.3-20.19,244.69,244.69,0,0,1,28.35-11.36c-30.39,37-60.29,83.48-71.36,132.12a183.46,183.46,0,0,0-3.56,21.11v-.09c-2.31,7.66-3.44,42.12,3.7,71.06,2.24,9.1,5.29,17.65,9.39,24.65,3.55,6.06,5.48,12.92,8.88,19.06a160.94,160.94,0,0,0,93.54,75.3,15.32,15.32,0,0,1,4.33,2.13,24.33,24.33,0,0,0,6.83,2.83c13.38,4.2,27.49,5.2,41.61,6.83,6.65.62,13.31.9,20,.91,46.63,0,93.68-13.2,140.23-14.61a13.87,13.87,0,0,1,3.28,0h0q.69.07,1.41.21h0C549.92,480.22,559.16,485.94,557.5,487.6Z"/><path class="cls-6" d="M931.5,422.81,792.86,465H616.63l1.31-6.77a16.16,16.16,0,0,1-1.26-4.9c-.06-.44-.1-.91-.13-1.41-.41-6.46,1.55-17.27,14.55-29.83,21-20.32,192-10.76,214.4-31.09,6.09-5.53,14.37-12.13,17-12,40,2,12.63-2.08,19.38-3l.31.22a268.46,268.46,0,0,1,32.43,26.69A137.64,137.64,0,0,1,931.5,422.81Z"/><path class="cls-5" d="M864,358.68c-.91-.61,0-1.16,0,0Z"/><path class="cls-5" d="M949.5,474.42A128.75,128.75,0,0,1,948,494.13C935.36,576.29,844.73,640,734.81,640A278.54,278.54,0,0,1,704,638.31c-6.15-.68-12.19-1.56-18.16-2.64-3-.53-5.93-1.11-8.85-1.75l-6.45-1.64c-2.18-.55-4.39-1.11-6.58-1.69-25.19-9.84-48.82-25.25-76.42-29.59-2.78-.71-5.61-1.37-8.47-2a319.63,319.63,0,0,0-45.25-6.48q-12.52-.93-25.5-.94c-66.64,0-125.19,18.67-158.71,46.85a1.33,1.33,0,0,1-2.17-.85,123,123,0,0,1-1.94-21.79c0-80.53,77.78-146.09,174.83-148.47,1.8,0,3.62-.06,5.44-.06a214.93,214.93,0,0,1,60.63,8.61,1.27,1.27,0,0,0,1.19-.27A209.78,209.78,0,0,1,616,455.17a235.43,235.43,0,0,1,24.45-12.84l1.24-.55a273.67,273.67,0,0,1,67.49-20,303.2,303.2,0,0,1,49.24-4,299.18,299.18,0,0,1,69.08,7.95c.32.07-12-1.71-8-1.71,27.09,0,41.51-22.34,43.68-44.57.22-2.26.37-4.64.45-7.16,0-1.63.08-3.32.08-5.07l-1-5.2c7,4.7,13.94,9.46,20.63,14.31l.32.23a271.06,271.06,0,0,1,32.69,27.21,139.17,139.17,0,0,1,17,20.29C943.42,438.82,949.5,455.32,949.5,474.42Z"/><path class="cls-14" d="M275,401.5s-9-19,6-30"/><path class="cls-14" d="M461.53,259.48s7.82-19.52,26.08-16"/><path class="cls-15" d="M521,467.07c-97.43,2.38-175.53,68-175.53,148.68a123.22,123.22,0,0,0,1.94,21.82,1.34,1.34,0,0,0,2.18.85c33.66-28.22,92.45-46.91,159.36-46.91q13,0,25.61.93,2.86.21,5.72.47c4.56-40.39,1-96-1.55-125.57q-6.07-.33-12.25-.34C524.67,467,522.85,467,521,467.07Z"/><path class="cls-6" d="M948.09,493.05c.16-1,.28-2,.41-3.05-35.57,39.22-157,58.41-179.19,57.2-11.47-.63-241.38-33.72-330.73-10.79C387,549.64,360.19,596.08,346.72,633c.21,1.52.45,3,.72,4.55a1.33,1.33,0,0,0,2.17.86c33.52-28.4,92.09-47.2,158.73-47.2,8.65,0,17.17.32,25.51.94a319.68,319.68,0,0,1,45.26,6.53c2.86.63,5.69,1.3,8.47,2,20.15,3.19,38.18,12.32,56.24,20.87,3.1,1.35,6.16,2.78,9.21,4.27,3.64,1.64,7.29,3.22,11,4.67,2.2.58,4.4,1.15,6.58,1.7l6.45,1.66q4.4.95,8.87,1.76,8.93,1.62,18.15,2.65A276.27,276.27,0,0,0,734.88,640C844.82,640,935.46,575.81,948.09,493.05Z"/><path class="cls-5" d="M655.56,324.89c-18.63,5.8-39.16,27.82-42.12,37.29-8.07,25.81-26.84,64.25-52.21,106.75-5.32,8.92-12,19.12-17.48,28.43-16.39,27.93-21.63,47.77,55,.52,43.24-26.68,97.29-145,106-168.7C711.41,310.83,681.38,316.84,655.56,324.89Z"/><path class="cls-6" d="M704.68,329.18c5.12-14-11-13.82-30.46-9.4l-3.67,53s-19.44,62.36-67.2,99.57c-28.52,22.22-46.34,22.54-56.07,19.18-1.21,2-2.4,4-3.53,5.88-16.39,27.93-21.63,47.77,55,.52C641.94,471.2,696,352.91,704.68,329.18Z"/><path class="cls-6" d="M560.67,514c-14,7.63-21.68,2.3-24.87-1.25a35.69,35.69,0,0,0-1.66,5c-.09.35-.16.68-.22,1l2.43,7.11a3.89,3.89,0,0,0,.63.22,12.29,12.29,0,0,0,5.22,0,37.22,37.22,0,0,0,5-1.25,82.62,82.62,0,0,0,8.25-3.14c.63-.27,1.27-.56,1.93-.86,2.63-1.19,5.52-2.58,8.68-4.2l2.42-1.26c1.65-.87,3.36-1.79,5.15-2.77s3.65-2,5.58-3.12,3.94-2.26,6-3.48q6.24-3.68,13.41-8.09c10-6.15,20.5-17.16,30.92-30.76-6.92,6.64-15,13.67-15,13.67C609.88,488.28,580,503.41,560.67,514Z"/><path class="cls-16" d="M372.42,144.34A340,340,0,0,1,466.5,153"/><path class="cls-16" d="M303.5,156s10.53-3.82,29-7.16"/><g class="cls-9"><path class="cls-17" d="M367,439.5a21.5,21.5,0,0,1,2.78,5.38,31.64,31.64,0,0,1,1.48,5.72,33.62,33.62,0,0,1-.21,11.87,27.5,27.5,0,0,1-4.86,11.24,20.9,20.9,0,0,1-4.49,4.37,14.69,14.69,0,0,1-5.7,2.42c.87-1.92,1.65-3.58,2.3-5.24s1.16-3.27,1.63-4.86c.93-3.2,1.63-6.39,2.3-9.69l2-10.19A92.79,92.79,0,0,1,367,439.5Z"/></g><g class="cls-9"><path class="cls-17" d="M535.6,360.55a28.22,28.22,0,0,1-9.92,5.67,37.16,37.16,0,0,1-11,2,31,31,0,0,1-11.4-1.67,20.86,20.86,0,0,1-5.3-2.74,13.33,13.33,0,0,1-4-4.44,81.46,81.46,0,0,0,10.57.21l9.9-.35c3.34-.11,6.73-.14,10.23,0A60.28,60.28,0,0,1,535.6,360.55Z"/></g><path class="cls-16" d="M688,286.5c9.84-3.58,27.44-9.27,59.32-2.21S802.89,304,811,317.5"/><path class="cls-16" d="M737.48,430.6c17.51-1.27,39.77-1.32,67,1.4"/><path class="cls-16" d="M687.5,440s7.73-3.34,23.77-6.21"/><path class="cls-18" d="M422.5,518s40.89-34.92,92.5-28.71"/><path class="cls-16" d="M639,350.5s10,70-53,111"/><path class="cls-5" d="M571.5,165s29-3,33-9-10,20-17,14l-7-6"/><path class="cls-5" d="M596.48,168.7s30.84,9.68,34,4.38,0,10.6-29.76,2.65"/><path class="cls-5" d="M129.5,460s-5,13-12,17,21-8,18-11a28.2,28.2,0,0,1-4.59-6"/><path class="cls-6" d="M129.5,460s-5,13-12,17,21-8,18-11a28.2,28.2,0,0,1-4.59-6"/><path class="cls-5" d="M132.48,465s-4.28,19.64-20,27c0,0,21.41-8.59,20-11.05S132.48,465,132.48,465Z"/><path class="cls-6" d="M132.48,465s-4.28,19.64-20,27c0,0,21.41-8.59,20-11.05S132.48,465,132.48,465Z"/><line class="cls-19" x1="585.56" y1="277" x2="588.5" y2="269"/><line class="cls-19" x1="303.77" y1="507.98" x2="312.29" y2="508.02"/><path class="cls-20" d="M726,646.5s-5-32-15-33"/><path class="cls-20" d="M734,646.5s-7-56,0-56"/><path class="cls-20" d="M753,646.5s-9-34-3-36"/><path class="cls-20" d="M771,646.5s14-27,0-33"/><line class="cls-2" x1="193" y1="522.5" x2="187" y2="507.5"/><line class="cls-2" x1="203" y1="526.5" x2="203" y2="501.5"/><line class="cls-2" x1="215.62" y1="530.09" x2="222" y2="514.5"/></g></g></g></svg>